<svg xmlns="http://www.w3.org/2000/svg" viewBox="0 0 1311.93 192.67"><defs><style>.cls-1{fill:#cc2131;fill-rule:evenodd;}</style></defs><g id="Layer_2" data-name="Layer 2"><g id="Layer_1-2" data-name="Layer 1"><path class="cls-1" d="M92.5,50.49H99c10.5,0,16.16,4,19,10.91s1.62,18.58-2,34.74c-3.23,16.56-7.27,28.27-12.92,35.14s-12.92,10.9-23.43,10.9H73.1L92.5,50.49ZM0,180.14H82.4c51.71,0,91.69-31.51,102.19-82,10.5-49.68-3.23-85.63-70.28-85.63H35.55ZM355,124c-8.48,40.4-42,60.59-92.5,60.59-50.89,0-75.52-20.19-67-60.59L219.32,12.52h66.25l-23,108.65c-2.82,13.34,2.43,18.18,9.3,18.18,7.27,0,14.54-4.83,17.37-18.18l23-108.65h66.65Zm182.57-6.06c-10.09,46.46-51.29,66.65-92.89,66.65-58.57,0-78.36-36-67.05-88.86,9.69-52.11,48.06-87.65,105-87.65,42,0,74.32,17.37,63.82,66.64H485.92c2.82-19-3.23-23-11.32-23-17,0-22.21,17.77-27.86,44.44-5.66,25.44-8.08,44.42,8.48,44.42,8.48,0,15.35-4.83,20.2-22.61h62.19Zm78-5.24,28.27-63.83h.41l-.41,63.83Zm-94.92,67.44h63.81L597,153.49h48.07l.8,26.65h68.67L696.34,12.51h-86L520.65,180.14ZM761,57.35H719.79l9.69-44.83h149l-9.68,44.83H827.63L801.37,180.14H735.13L761,57.35ZM891,12.52H957.7l-36,167.62H855.49L891,12.52ZM1196.41,1.61a96.68,96.68,0,0,0-77.57,94.92c0,32.32,16.17,61,40.81,78.77L1196.41,1.61Zm19-1.61h-4.85l-38.77,182.57a97.5,97.5,0,0,0,43.63,10.1c53.32,0,96.53-43.21,96.53-96.14A96.54,96.54,0,0,0,1215.39,0Z"/></g></g></svg>