<svg xmlns="http://www.w3.org/2000/svg" viewBox="0 0 1389.12 218.51"><defs><style>.cls-1{fill:#c23c40;fill-rule:evenodd;}</style></defs><g id="Layer_2" data-name="Layer 2"><g id="Layer_1-2" data-name="Layer 1"><path class="cls-1" d="M444.5,109.83l16.2,1.9c7.25.82,8,6.9,8,10.77v19.16H394.13V122.5c0-3.87.79-10,8-10.77l16.2-1.9V93.44H321.43v16.39l16.18,1.9c7.28.82,8.06,6.9,8.06,10.77v62.79c0,3.88-.78,10-8.06,10.78L321.43,198v16.39h96.94V198l-16.2-1.9c-7.25-.82-8-6.9-8-10.78V166.13h74.61v19.16c0,3.88-.79,10-8,10.78L444.5,198v16.39h96.94V198l-16.19-1.9c-7.26-.82-8.06-6.9-8.06-10.78V122.5c0-3.87.79-10,8.06-10.77l16.19-1.9V93.44H444.5v16.39Z"/><path class="cls-1" d="M1091,93.44H971.25v16.39l14.31,1.5c5.09.63,8.44,2.8,8.44,9.88l0,64.08c0,3.88-.79,10-8.06,10.79L969.76,198v16.4l121.19,0c43.33,0,79-17.46,79-60.45s-35.65-60.44-79-60.44Zm-8.82,97.73-40.62,0v-74.6h40.62c23.94,0,32.09,11.36,32.09,37.28s-8.15,37.28-32.09,37.28Z"/><path class="cls-1" d="M1373.73,196.27c-7.67-.91-10.08-5.85-12.46-9.49l-55.81-85.29c-4-6.13-6.91-8-12.87-8h-91.87v16.39l21.9,2.5c3,.33,7.32,4.51,3.84,10.19l-41.22,67.07c-1.68,2.72-3.75,5.88-8.53,6.5l-16.4,1.88v16.4h77.47V198l-13.35-1.36c-5.7-.6-8.73-4.59-5.91-9.22l6.19-10.08h74.36l5.49,8.36c4.82,7.35-1.25,10.34-6.53,10.9l-13.69,1.4v16.41h104.78V198l-15.39-1.71Zm-135.87-40.34,22.89-37.25,24.36,37.25Z"/><path class="cls-1" d="M884.72,109.83l16.19,1.9c7.26.82,8.05,6.9,8.05,10.77V183L845,98.57c-2.9-3.89-5.39-5.14-12.27-5.14H749.52v16.4l16.2,1.89c7.26.82,8,6.9,8,10.78v62.78c0,3.89-.79,10-8,10.79L749.52,198v16.4H827V198l-16.2-1.89c-7.25-.83-8.06-6.9-8.06-10.79v-60.5l64,84.43c2.9,3.89,5.39,5.15,12.28,5.15h58.91V122.5c0-3.88.8-10,8-10.78l16.2-1.89V93.43H884.72v16.4Z"/><path class="cls-1" d="M645.29,89.28c-78.74,0-99.07,34.46-99.07,64.63s20.33,64.6,99.07,64.6,99.07-34.43,99.07-64.6S724,89.28,645.29,89.28Zm0,106.2c-30.52,0-43.23-12.81-43.23-41.57s12.71-41.58,43.23-41.58,43.23,12.8,43.23,41.58S675.8,195.48,645.29,195.48Z"/><path class="cls-1" d="M86.24,214.38l-17.5-16.23,88.47-10.26L200,214.38Z"/><path class="cls-1" d="M235.35,144.91,49,179.85l16.2,15L151,184a2.58,2.58,0,0,1-1.63-2.46,2.37,2.37,0,0,1,2.17-2.28l50.89-7.47a33.69,33.69,0,0,0,17.71-8.41c1.11-1,4.88-4.83,7.3-7.54q2-2.24,4-4.53c1.11-1.3,3.51-4.18,4.47-5.48a.57.57,0,0,0-.53-1Z"/><path class="cls-1" d="M264.51,104.08,31.83,164l14,13,71.61-13.69c-1.27-.71-1.89-1.3-1.89-2.5a2.39,2.39,0,0,1,2-2.36L234,135.81A28.55,28.55,0,0,0,250.59,126c1.55-1.73,4.29-5.25,6.3-8,1.52-2,2.79-4,3.8-5.46s3.56-5.62,4.6-7.5a.69.69,0,0,0-.78-1Z"/><path class="cls-1" d="M233.73,36.43q11.07-4.7,22.07-9.57L273.31,19c4.19-1.89,16.44-7.65,18.27-8.52C300.2,6.35,310.83,1.26,313,.09a.88.88,0,0,1,1.23,1.06,178.66,178.66,0,0,1-6.41,17.21,114.38,114.38,0,0,1-5.83,12,39.17,39.17,0,0,1-7.17,8.75,37,37,0,0,1-11.58,7.42l-10.51,4.11c-.79.29-13.76,5.15-16.41,6l-229.59,81c-5.36,1.85-11.63,5.45-11.63,12.4,0,3,1.86,6.91,5.44,10.25l58,54.06H51.62A28.77,28.77,0,0,0,49.29,209a22.61,22.61,0,0,0-4.51-6c-2.29-2.28-4.61-4.67-5.43-5.47L8.75,166.92C3.11,161.27,0,154.06,0,147.39c0-9.18,5.1-18,20.31-24.2L233.73,36.43Z"/><path class="cls-1" d="M259,67.22c3.16-1,8.93-3,10.47-3.56S277,60.92,278,60.53c4.27-1.62,8.3-3.15,12.44-4.91.67-.24,1.36.26,1.06,1-.48,1.15-3.13,6.84-3.87,8.19-1.89,3.49-3.57,6.68-5.48,9.64-1.69,2.61-4.18,6.51-5.66,8.31a36.44,36.44,0,0,1-8.33,7.62,35.59,35.59,0,0,1-10.48,4.75L88.53,140.61a2.45,2.45,0,0,0-1.78,2.33,2.68,2.68,0,0,0,1.72,2.38L28.53,160.93l-4.89-4.57A7.89,7.89,0,0,1,21,150.78c0-4.42,3.45-6.45,8.74-8.18L259,67.22Z"/></g></g></svg>