<?xml version="1.0" encoding="utf-8"?>
<!-- Generator: Adobe Illustrator 25.2.1, SVG Export Plug-In . SVG Version: 6.00 Build 0)  -->
<svg version="1.1" id="Layer_1" xmlns="http://www.w3.org/2000/svg" xmlns:xlink="http://www.w3.org/1999/xlink" x="0px" y="0px"
	 viewBox="0 0 1420.6 150.8" style="enable-background:new 0 0 1420.6 150.8;" xml:space="preserve">
<style type="text/css">
	.st0{fill-rule:evenodd;clip-rule:evenodd;fill:#62BE1B;}
</style>
<g id="Layer_2_1_">
	<g>
		<g id="Layer_1-2_8_">
			<path class="st0" d="M0,90.4v57.3h130.9V82.3h25.5c16.3,0,43.4,2.7,68.2,8.2c28.8,6.2,54.4,16.6,54.4,31.2
				c0,12.2-19,26.1-19.6,26.1h187.1c0,0-4.6-20.7-14.4-34.2c-6.6-9.8-15.6-17.7-26.1-23.1c-10.3-5.5-23.6-9.8-41.8-12.8v-3
				c8.4,0,31-8.1,50.5-21.2C441.1,35.9,446,3,446,3H260.8c0,0,15.5,12.8,15.5,24.4c0,24.4-87.5,42.9-119.2,42.9h-26.1V3H0V90.4z
				 M479.1,90.4V3.8h47v46.7l41.5-46.7h55.2l-52.4,54.3l20.9,32.3l37.2,57.3H572l-34.8-57.3l-11.1,11.7v45.6h-47V90.4z M640.2,90.4
				c22.3-9,54.9-3.8,54.9-16.8c0-7.6-9.2-8.4-13.6-8.4c-6,0-13.6,1.1-14.7,10.1h-39.9c0-22.3,15.8-35,57-35
				c49.7,0,52.7,18.2,52.7,43.2v49.2c0,6,0.3,9,5.7,13.3v1.9h-43.2l-1.9-11.1c-11.7,11.1-23.9,14.1-39.4,14.1
				c-19.8,0-37.5-9.8-37.5-31.5C620.3,103.3,629,95.1,640.2,90.4L640.2,90.4z M747.8,90.4L732,43.2h40.5l11.7,47.3l4.3,17.4
				l4.6-17.4l12-47.2h35.3l11.7,47.2l4.3,17.4l4.3-17.4L873,43.2h39.4l-15.2,47.3L879,147.8h-40.5l-15.2-57.3l-1.1-4.1l-1.1,4.1
				l-13.8,57.3h-40.7L747.8,90.4L747.8,90.4z M920,90.4c22-9,54.6-3.8,54.6-16.8c0-7.6-9-8.4-13.6-8.4c-5.7,0-13.6,1.1-14.4,10.1
				h-40.2c0-22.3,16-35,57.3-35c49.4,0,52.4,18.2,52.4,43.2v49.2c0,6,0.3,9,5.7,13.3v1.9h-42.9l-2.2-11.1
				c-11.7,11.1-23.6,14.1-39.4,14.1c-19.6,0-37.2-9.8-37.2-31.5C900.1,103.3,908.6,95.1,920,90.4L920,90.4z M1027.8,90.4
				c-3-4.1-4.6-9.2-4.6-15.7c0-26.9,27.7-34.5,49.7-34.5c22.8,0,49.4,5.2,51.9,32.9H1087c-0.3-3-1.8-5.7-4.1-7.6
				c-2.4-1.9-5.4-2.9-8.4-2.7c-7.1,0-11.7,2.4-11.7,7.6c0,10.3,32.9,8.4,52.1,20.1c8.2,4.9,13.9,12.2,13.9,23.9
				c0,21.7-17.9,36.4-56.2,36.4c-23.9,0-50.5-7.3-52.7-35.6h39.6c-0.2,3.8,1.5,7.4,4.4,9.8c3,2,6.7,3.1,10.3,3c6.2,0,13-1.9,13-9.2
				C1087.2,104.6,1042.2,111.6,1027.8,90.4L1027.8,90.4z M1150.3,90.4c22-9,54.6-3.8,54.6-16.8c0-7.6-9.2-8.4-13.6-8.4
				c-5.7,0-13.6,1.1-14.7,10.1h-39.9c0-22.3,15.8-35,57.3-35c49.4,0,52.4,18.2,52.4,43.2v49.2c0,6,0.3,9,5.7,13.3v1.9H1209
				l-1.9-11.1c-11.7,11.1-23.6,14.1-39.4,14.1c-19.8,0-37.5-9.8-37.5-31.5C1130.2,103.3,1138.9,95.1,1150.3,90.4L1150.3,90.4z
				 M1254.6,90.4V3.8h41.6V75l26.6-31.8h48.6l-38.8,40.4l4.6,6.8l39.4,57.3h-50l-22.5-37.2l-7.9,7.9v29.3h-41.6L1254.6,90.4
				L1254.6,90.4z M1379,43.2v104.6h41.6V43.2H1379z M1379,0v29.6h41.6V0H1379z M1204.9,101.6c-13.6,6.5-31.5,3.2-31.5,16.8
				c0,5.2,4.9,8.7,13,8.7C1201.1,127.1,1206,115.7,1204.9,101.6L1204.9,101.6z M974.6,101.6c-13.6,6.5-31.5,3.2-31.5,16.8
				c0,5.2,4.9,8.7,13.3,8.7C970.8,127.1,975.7,115.7,974.6,101.6L974.6,101.6z M695.1,101.6c-13.6,6.5-31.5,3.2-31.5,16.8
				c0,5.2,4.9,8.7,13,8.7C691.3,127.1,696.2,115.7,695.1,101.6L695.1,101.6z"/>
		</g>
	</g>
</g>
</svg>
