<svg xmlns="http://www.w3.org/2000/svg" viewBox="0 0 1939.43 192.56"><defs><style>.cls-1,.cls-2{fill-rule:evenodd;}.cls-2{fill:#db812e;}</style></defs><g id="Layer_2" data-name="Layer 2"><g id="Layer_1-2" data-name="Layer 1"><path d="M838.62,62c-10.54-3.23-26.74-3.23-52.69-3.23H666L636.69,188.45H698.3L706.43,156h48.63c19.46,0,23.5,3.25,20.26,16.22l-2.44,16.2h64.84l4.08-22.69c5.68-16.21-6.47-25.93-35.65-25.93,15.41-3.23,21.89-3.23,27.56-6.49,14.6-6.48,22.7-13,26.77-35.66C865.35,78.21,856.45,68.49,838.62,62ZM794,104.15c-4.06,9.72-6.49,13-8.93,16.21s-8.91,3.24-21.88,3.24H714.56l7.3-35.66H770.5C793.19,87.94,797.24,91.17,794,104.15Z"/><path class="cls-1" d="M1061.62,58.77H964.34L863.75,188.45h68.09l13.8-22.69h84.3l8.9,22.69h64.84Zm-38.15,81H965.12l44.61-55.11Z"/><path class="cls-1" d="M1326.28,139.82l-2.44,3.23c-2.44,16.21-7.31,22.7-15.41,29.19s-26,13-44.6,16.2c-9.73,0-21.88,3.25-54.3,3.25-38.91,0-52.69-3.25-63.23-6.49-24.31-6.49-30-16.22-28.35-35.68-1.62-6.48,0-13,2.44-16.2l.82-9.72,1.63-6.5,1.62-6.47c4.88-19.47,11.38-32.43,29.21-38.91,13.78-9.73,32.43-13,55.12-13h42.15c38.91,0,51.88,0,66.47,6.49q20.67,4.85,17,29.17c-2.43,3.25-2.43,3.25-4.06,9.73h-61.6c3.24-13-4-16.21-36.47-16.21-22.69,0-31.61,3.23-36.48,9.73-2.43,3.23-4.86,6.48-8.92,16.2.81,3.23.81,3.23,0,13l-4.06,9.73c-4.88,19.45,2.41,22.69,34.84,22.69S1259,156,1262.23,143l-.81-3.23h64.86Z"/><polygon class="cls-1" points="1406.48 188.45 1344.87 188.45 1374.15 58.77 1439 58.77 1406.48 188.45 1406.48 188.45"/><path class="cls-1" d="M1677.76,188.45H1567.52l-23.45-55.11c-13.77-29.17-6.49-13-17.82-45.39H1523c-2.45,16.22-.8,9.73-1.64,19.46-4.06,9.72-4.86,19.46-5.7,29.19l-13,51.87h-61.61l29.28-129.69h107l23.45,55.12c13.77,29.17,10.54,16.2,21,45.39h3.24l.8-9.73-.8-3.23,3.26-13a131.16,131.16,0,0,0,4.07-22.69l9.75-51.88H1707l-29.26,129.67Z"/><path class="cls-1" d="M1936.15,117.11h-3.23c-1.64,6.5,1.62,6.5-.83,9.73-1.61,6.49-2.43,16.21-1.62,19.46-4.88,19.46-15.43,29.18-33.26,35.67s-36.48,9.73-88.36,9.73c-45.38,0-62.42-3.25-77-9.73-18.63-9.72-25.1-22.69-17.79-45.38,0,0,1.61-6.5.81-9.73,7.31-22.69,8.93-29.18,11.36-32.42,9-16.22,22.74-25.94,50.3-32.42,15.39-3.24,31.6-3.24,73.75-3.24,32.43,0,48.63,0,59.18,3.24,26.74,3.24,32.41,13,29.15,38.9h-64.83c0-13-6.49-13-32.43-13-32.41,0-45.39,0-52.69,9.73-2.43,3.23-1.61,6.49-3.24,13l-1.64,6.48-1.61,6.49c-3.23,0-1.62,6.48-3.24,13-4.88,19.45,2.4,22.69,38.06,22.69s44.6-3.24,47.84-16.22l2.43-3.23h-45.38l7.31-22.7h107v0Z"/><path class="cls-2" d="M0,192.56H85.82l22-52.81,39.62,52.81h186l57.22-53.92-8.8,52.82h72.62l59.42-51.72-7.71,51.72h78.13L617.29,44H538.06l-63.82,57.22L486.35,44H411.52L329,127.64,363.11,27.51H486.34L492.94,0H164l-9.9,26.41,122.13-1.1L224.46,156.25l-40.7-53.92L254.18,44H195.86l-71.52,58.32L148.54,44H62.72C30.81,116.64,0,192.56,0,192.56Z"/></g></g></svg>