<svg xmlns="http://www.w3.org/2000/svg" viewBox="0 0 1729.95 204.48"><defs><style>.cls-1{font-size:190.07px;font-family:Therace;}.cls-1,.cls-11{fill:#fff;}.cls-2{letter-spacing:-0.11em;}.cls-3{letter-spacing:-0.01em;}.cls-4{letter-spacing:-0.1em;}.cls-5{letter-spacing:-0.1em;}.cls-6{letter-spacing:0em;}.cls-7{letter-spacing:-0.12em;}.cls-8{letter-spacing:-0.1em;}.cls-9{letter-spacing:-0.02em;}.cls-10{letter-spacing:-0.04em;}</style></defs><g id="Layer_2" data-name="Layer 2"><g id="Layer_1-2" data-name="Layer 1"><text class="cls-1" transform="translate(639.33 161.9)"><tspan class="cls-2">M</tspan><tspan class="cls-3" x="129.82" y="0">O</tspan><tspan class="cls-4" x="236.64" y="0">T</tspan><tspan class="cls-5" x="330.34" y="0">O</tspan><tspan class="cls-6" x="419.3" y="0">R </tspan><tspan class="cls-7" x="580.29" y="0">W</tspan><tspan class="cls-8" x="710.11" y="0">O</tspan><tspan class="cls-9" x="799.06" y="0">R</tspan><tspan class="cls-10" x="902.84" y="0">L</tspan><tspan x="972.02" y="0">D</tspan></text><path class="cls-11" d="M222.31,26.44c-.36.19-.72.37-1.08.58l.73-.14C222.08,26.73,222.19,26.58,222.31,26.44Z"/><path class="cls-11" d="M204.84,155.11a59.14,59.14,0,0,1,2.09-10.24c-.71-1.69-1.41-3.39-2.05-5.14-5.94,16.11-10.48,30-11.23,36.68a44.7,44.7,0,0,0,20.26-17.81,103.1,103.1,0,0,1-6-11.33C206.86,150,205.82,152.68,204.84,155.11Z"/><path class="cls-11" d="M191.16,117a12.61,12.61,0,0,1-1-.93c1.1-.47,2.13-1,3.21-1.48,1.35-.62,2.73-1.22,4-1.87l1.22-.63c0-.2,0-.4-.07-.61l-.17,0c-.9.2-1.8.38-2.69.54a49,49,0,0,1-15.46.29c-40.66,33.32-46.05,39.47-56.6,43.67l54.09-44.12-.71-.16c-16.82,12.34-30.9,23.5-45.22,33.36C119.2,155.28,106.32,165.45,93,175.65c8.06,5.31,53.21-11.1,65-22.89C168.27,142.47,178.89,130.43,191.16,117Z"/><path class="cls-11" d="M152.17,128.6c7.34-5.4,15.06-11.16,23.33-17.2-.63-.17-1.24-.35-1.84-.55a28.49,28.49,0,0,1-6.27-2.9c-11.61,7.65-21.06,14.15-28.41,18.82-20.33,12.92-68.66,25.49-47.16,14.08L165,102c-19.15,12.24-36.54,23.41-55.35,34.27a626.32,626.32,0,0,0,55-30.5,11.76,11.76,0,0,1-1.66-2c2.94-.71,5.81-1.51,8.65-2.34l4.18-2.59c-1.47-.06-2.89-.18-4.26-.34l-.48,0-2.18,1c-20.95,10.1-37.92,19.38-56.4,27.51q-2.15,1-4.34,1.89c-1.39.59-2.72,1.08-4.08,1.61-15.85,8.24-32.24,16.52-49.5,24.84a14.33,14.33,0,0,0,2.55,1c15,4.26,58.13-2.16,72.44-11.71C136.78,139.8,144.26,134.4,152.17,128.6Z"/><path class="cls-11" d="M110.06,124.92c9.94-4.09,20.29-8.91,31.33-14.2,6.79-3.25,13.84-6.67,21.23-10.22,1.72-.83,3.48-1.66,5.25-2.5l-.37-.08c-.63-.13-1.25-.26-1.85-.4a39.8,39.8,0,0,1-8.43-3c-13.37,5.83-24.34,10.85-33.19,14.37-37.5,15-85.79,14-54.17,4.15l25.74-8c-1.44.37-2.89.76-4.31,1.11a60.52,60.52,0,0,1-10,1.51,93,93,0,0,1-12.06.08c-15.5,4.34-30.92,8.43-46.23,12.07.94,1.35,2.91,2.71,5.68,4C43.88,130.92,83.16,136,110.06,124.92Z"/><path class="cls-11" d="M88.26,112.27c18.48-5.07,40.55-12,65.19-20a23.9,23.9,0,0,1-3.16-2.59C126.28,98.7,105.37,106.58,88.26,112.27Z"/><path class="cls-11" d="M95.62,102.66c8.59-2.2,17.52-4.8,26.91-7.64l13.64-4.19,11.92-3.69c-.32-.46-.62-.93-.88-1.39,5.22-.8,10.25-1.84,15.2-3l.29-.09c1.88-.57,3.8-1.13,5.71-1.7l-.1,0a50.93,50.93,0,0,1-5.9-1.56,44.58,44.58,0,0,1-6.55-2.78c-19.77,6-35.51,11.41-47.45,14.17C54,103.36,30.18,86.87,55.7,82.57l37.46-6.31h0a175.49,175.49,0,0,1-19.05.51c-2.68-.07-5.27-.22-7.8-.42-18.7,2.59-37.78,5.06-57.41,7.37a14.06,14.06,0,0,0,1.89,2.34C21.5,96.94,58.13,104.47,82,104.12A60.87,60.87,0,0,0,95.62,102.66Z"/><path class="cls-11" d="M67.09,85.55c29.33-3.31,55-7.57,83-12.5-1.11-.82-2.18-1.71-3.2-2.63C117.87,76.57,92.49,82.12,67.09,85.55Z"/><path class="cls-11" d="M86.64,74.93c.7-.07,1.4-.14,2.08-.24,3.11-.45,6.28-.94,9.49-1.45,13.66-2.18,28.26-4.83,44.17-7.53-.15-.19-.32-.36-.47-.56a49.25,49.25,0,0,1-4.57-6.83c-13,2-23.73,3.94-34,5.21C40.78,71.29,1.41,42.64,45,43.21l82.51,1.06A28.55,28.55,0,0,1,126,41.66c-.45-.87-.86-1.76-1.23-2.68L0,38.67A14.6,14.6,0,0,0,1.44,42C9.66,56.39,44.72,73.51,74.51,75.19A72.66,72.66,0,0,0,86.64,74.93Z"/><path class="cls-11" d="M46.62,48.45c24,1.63,52,2.46,86.87,2.38A32.18,32.18,0,0,1,129.6,47C99.83,47.87,74.43,49.08,46.62,48.45Z"/><path class="cls-11" d="M203.62,135.87a115.23,115.23,0,0,1-3.74-15.07c-.1,0-.19-.06-.29-.11l.28.07v0c-.48-.08-.94-.17-1.4-.28-16.3,20-30,36.09-33.84,37.05l31.27-37.81a16.86,16.86,0,0,1-3-1.4c-17.13,20.94-34.59,41.9-53.07,62.95,16,1.22,47.17-20,55.92-33.07C198.36,144.27,201,140.14,203.62,135.87Z"/><path class="cls-11" d="M194,116.39c.09.07.21.12.3.19a11.29,11.29,0,0,0,2.92,1.5,15.72,15.72,0,0,0,2.28.63c-.16-1-.27-1.93-.4-2.9-.09-.66-.16-1.33-.24-2-1.33.74-2.67,1.47-4,2.15C194.52,116.1,194.27,116.26,194,116.39Z"/><path class="cls-11" d="M188.63,101.94c.83-.3,1.67-.59,2.49-.91s1.56-.65,2.33-1c1.53-.66,3-1.34,4.51-2.06l0,0h0c0-.35,0-.7,0-1s0-.6,0-.9l-1.1.3-.41.11c-2.55.67-5,1.21-7.42,1.6-.89.14-1.77.27-2.64.38-3.32,1.29-6.68,2.54-10.12,3.71-2.92,1-5.88,1.94-8.91,2.82a11.9,11.9,0,0,0,2,1.71,21.25,21.25,0,0,0,6,2.81c.66.21,1.34.39,2,.57.52.12,1,.24,1.58.34l.58.11c.83.15,1.69.28,2.58.38a54,54,0,0,0,15.28-.58l1-.19c0-.27,0-.55,0-.83-.23-2.8-.35-5.64-.39-8.51-2,.76-3.92,1.42-5.86,2-1.29.37-2.57.69-3.84,1-.18,0-.36.09-.54.12-.75.15-1.49.27-2.23.37a34.18,34.18,0,0,1-4.22.36c-.63,0-1.27.07-1.89,0,.88-.18,1.73-.41,2.59-.62Q185.42,103.09,188.63,101.94Z"/><path class="cls-11" d="M198.6,86.08c.05-.47.13-.93.18-1.39a2.36,2.36,0,0,1,0-.28l-1.66.53c-.89.26-1.78.5-2.68.74-2,.56-4.11,1.07-6.15,1.5-.32.07-.64.16-1,.22-1.61.33-3.22.61-4.8.83a58.09,58.09,0,0,1-12,.56,35.87,35.87,0,0,1-4.67-.59c-.12,0-.26,0-.39-.06.35,0,.69-.11,1-.15,3.25-.42,6.45-.93,9.62-1.53,5.85-1.09,11.56-2.46,17.1-4.07,1.54-.45,3-.94,4.56-1.42-.22-.15-.43-.31-.64-.47l-.74.14c-3,.55-5.9.9-8.72,1.14-1,.1-2,.14-3.06.2a72.54,72.54,0,0,1-10.27-.15l-3.66,1c-2.6.73-5.21,1.46-7.87,2.12-3,.74-6,1.41-9.1,2.05-.54.11-1.07.25-1.62.36l.09.11q.27.34.57.69c.12.14.25.28.38.41a18.74,18.74,0,0,0,3.27,2.7,28,28,0,0,0,3.62,2,38.74,38.74,0,0,0,8.53,2.66c.67.13,1.35.24,2,.35l.65.1c.71.1,1.43.18,2.16.25l1.34.1h.16c1.33.09,2.69.15,4.1.14q2.88,0,6-.29l1.48-.15q2.7-.31,5.55-.87c1-.18,2-.39,3-.63s2-.49,3.07-.78v-.27a2.45,2.45,0,0,1,0-.27c0-.63.09-1.25.13-1.87,0-.4.06-.78.08-1.17l-.2,0c-.56-.14-1.13-.23-1.68-.4.63.08,1.27.11,1.9.17.05-.68.09-1.35.14-2S198.52,86.81,198.6,86.08Z"/><path class="cls-11" d="M129.65,41.66a30.15,30.15,0,0,0,1.79,2.66,32.06,32.06,0,0,0,2.11,2.55,36.45,36.45,0,0,0,4.27,3.94,40.9,40.9,0,0,0,3.75,2.61,50.24,50.24,0,0,0,6.49,3.38,68.3,68.3,0,0,0,12.39,3.89c1.48.32,3,.61,4.51.86.57.1,1.15.17,1.73.26,1.69.25,3.42.46,5.18.63.75.07,1.51.12,2.27.17.59,0,1.18.1,1.78.13-.83,0-1.66,0-2.47,0s-1.9-.06-2.84-.11q-3.15-.15-6.15-.47l-1.86-.22q-3.93-.51-7.58-1.32a109.19,109.19,0,0,1-13.64-1.32,26,26,0,0,0,3.53,5.4l.43.53c.28.32.51.67.81,1s.68.63,1,1,.81.76,1.22,1.12c.56.5,1.1,1,1.71,1.46a38.77,38.77,0,0,0,3.85,2.62,46.08,46.08,0,0,0,6.14,3,55.38,55.38,0,0,0,7.34,2.43,62.84,62.84,0,0,0,6.77,1.35c.11,0,.23,0,.34,0,.4.06.83.07,1.24.12.61.07,1.24.12,1.86.17l.39,0c1,.08,2.08.18,3.15.22h.49a78.71,78.71,0,0,0,11-.43c.69-.07,1.37-.14,2.07-.24l.66-.11-.11-.1c-.1-.11-.21-.21-.3-.32a12.85,12.85,0,0,1-1.5-2c-.13-.22-.28-.43-.39-.65,2.51-.42,5-.93,7.36-1.48.08-.4.15-.82.23-1.23.05-.22.08-.46.13-.69l.12-.55c.07-.29.15-.56.21-.85a1.21,1.21,0,0,0,0-.18h0c-.88-.12-1.78-.21-2.64-.37.91,0,1.84,0,2.76,0a28.13,28.13,0,0,1-4.09-2.2,30.32,30.32,0,0,1-2.53-1.85q-2.9.54-5.53.94a124.39,124.39,0,0,1-16,1.58,47.37,47.37,0,0,1-13.46-1.24,19.14,19.14,0,0,1-2.67-.92,11.84,11.84,0,0,1-1.84-1,7.83,7.83,0,0,1-1-.76c1.77.05,3.6,0,5.45,0,4.65-.11,9.54-.5,14.56-1.1q3.87-.45,7.81-1h1.28c2.52,0,5.07-.08,7.65-.22-.21-.25-.42-.48-.62-.73l-.3-.35h0l0-.05c-.36-.46-.68-1-1-1.45l-.12-.17c-.25-.38-.52-.75-.76-1.14s-.28-.5-.43-.74a.16.16,0,0,0,0-.07,42.87,42.87,0,0,1-2.4-4.74A2.4,2.4,0,0,0,185,53c.56-.09,1.17-.13,1.73-.2a25.62,25.62,0,0,1-3-2.41l-.27-.26-.2-.21c-1.15.11-2.27.2-3.36.28a118.39,118.39,0,0,1-15,.28c-8.16-.43-13.33-2-17.16-4a27,27,0,0,1-3.23-2c-1.16-.82-2.21-1.68-3.23-2.56,11.68,2,24.89,2.7,38,2.82A22.55,22.55,0,0,1,178,41.66a25.91,25.91,0,0,1-.74-2.55c0-.12,0-.25-.06-.37-16.74-.13-34.12-1.27-50.89-5.24a31.57,31.57,0,0,0,2,5.49C128.68,39.91,129.14,40.8,129.65,41.66Z"/><path class="cls-11" d="M199.67,78.24c.06-.38.15-.76.22-1.14,0-.09,0-.17,0-.25l.15-.75c-1.27.31-2.51.67-3.8,1a9.87,9.87,0,0,0,.65.8l.22.27c.15.16.31.31.47.46s.62.58,1,.86l.79.57c0-.11,0-.23.05-.34l-.15,0,.15-.07c0-.24.07-.49.11-.74S199.63,78.47,199.67,78.24Z"/><path class="cls-11" d="M204.25,59.84c0-.05,0-.1.05-.15.08-.24.15-.48.23-.72,0,0,0,0,0-.08l0-.09c-1.33-.16-2.64-.35-3.9-.59l-.18,0c-.78-.15-1.55-.31-2.31-.49l-.59,0c-1.66-.08-3.33-.23-5-.43h0c-1.14-.14-2.27-.25-3.43-.46.14.32.32.62.48.93,0,0,0,0,0,0,.14.28.27.56.43.83s.46.74.7,1.1l.09.14c.33.49.68,1,1.06,1.44a.08.08,0,0,0,0,0v0c.12.15.25.29.38.44s.46.56.71.83A24.89,24.89,0,0,0,195.83,65c.26.2.52.4.79.59l.53.38a28.1,28.1,0,0,0,2.57,1.53c.66.34,1.32.68,2,1,.15-.6.29-1.19.45-1.78s.32-1.27.5-1.9c.07-.22.15-.43.21-.66s.09-.26.12-.39l.15-.45a13.91,13.91,0,0,1-4-1.3,6.25,6.25,0,0,1-1.45-1,.73.73,0,0,0-.09-.08h.58c1.85,0,3.78,0,5.75-.12.08-.23.14-.46.22-.68-.48.2-.92.37-1.4.58.48-.29,1-.56,1.44-.83Z"/><path class="cls-11" d="M179.43,39.12a22.86,22.86,0,0,0,.83,2.54,22.54,22.54,0,0,0,1.55,3.11c.05.07.1.14.14.21.25.4.52.79.79,1.17a23.52,23.52,0,0,0,3,3.57c.15.14.31.25.46.39l.21.18a27.29,27.29,0,0,0,2.93,2.24l.71.47a35.53,35.53,0,0,0,7,3.38,2.18,2.18,0,0,1,.23.09c.94.32,1.93.6,2.92.87l1.56.4.54.12.29.06c.69.15,1.36.32,2.07.45.08-.24.17-.46.26-.69a.76.76,0,0,1,0-.11l.06-.17c.08-.21.16-.4.23-.61.21-.56.43-1.11.64-1.67.06-.16.12-.32.19-.49.28-.73.54-1.48.84-2.2,0-.08.05-.15.08-.22-1.19,0-2.37-.07-3.5-.16l3.7-.29.39-.85v0l-.06,0c-.66.31-1.29.57-2,.9.47-.3.93-.57,1.4-.86.24-.15.48-.31.72-.45a40.17,40.17,0,0,1-8.93-.91c-.71-.17-1.37-.35-2-.56s-.91-.32-1.34-.5a18,18,0,0,1-4.05-2.32c-.48-.37-.95-.74-1.39-1.13l-.38-.35-.58-.51c1,.18,2,.33,3.07.49s2.14.31,3.23.44c4.63.56,9.48.87,14.39,1,.13-.28.29-.54.42-.82s.37-.68.55-1,.31-.59.46-.88c-1.36,0-2.7,0-4,0l2.41-.29c.64-.44,1.29-.86,1.93-1.27-2.48,0-5-.1-7.47-.23a134.6,134.6,0,0,1-20.5-2.53L182,38.76c-.95-.21-1.91-.39-2.86-.64.06.22.14.42.2.64S179.4,39,179.43,39.12Z"/><path class="cls-11" d="M211.49,43l.44-.84c-.69.35-1.37.66-2.08,1Z"/><path class="cls-11" d="M214.05,32.33c.21.41.41.81.56,1.17a11,11,0,0,1,.44,1.16c.59-.41,1.17-.81,1.76-1.19l.54-.32.58-.84c.88-1.27,1.77-2.53,2.69-3.74.3-.4.62-.78.93-1.17l-1.13.11-.51.31c-.43.26-.86.51-1.29.79.4-.32.8-.59,1.2-.88l.23-.18-.37,0-2.86.31c.85-.19,1.76-.35,2.64-.53-3.66-3.63-8.45-6.91-15.58-6.73A36.91,36.91,0,0,1,214.05,32.33Z"/><path class="cls-11" d="M215.28,35.75c0,.14.08.25.12.39.21-.34.4-.69.61-1l-.84,0A5.74,5.74,0,0,1,215.28,35.75Z"/><path class="cls-11" d="M216.78,34l-1.55.82,1.09-.17C216.47,34.4,216.63,34.2,216.78,34Z"/><path class="cls-11" d="M207.83,130.47l.6-.19,3.51-1.05,3.28-1c3.54-1.06,6.65-2,9.55-3l.46-.16.14,0c2.13-.75,4.16-1.56,6.16-2.45-1.88.26-3.71.49-5.51.7l-.27,0-.89.1c-1,.11-2.07.21-3.09.29-1.67.14-3.31.22-4.92.25h-.58c-.81,0-1.62,0-2.43,0s-1.86-.14-2.78-.23H211a38.37,38.37,0,0,1-4.85-.82q.65,3.35,1.44,6.57C207.66,129.78,207.74,130.13,207.83,130.47Z"/><path class="cls-11" d="M223.94,149.64a49.7,49.7,0,0,0,13-5.56c.41-.26.82-.52,1.23-.8l-1.22.23A80.06,80.06,0,0,1,224,145.06c-1.29,0-2.57,0-3.83-.09a32.24,32.24,0,0,1-8.28-1.72c1.13,2.93,2.36,5.79,3.7,8.54l2.12-.5C220,150.73,222.06,150.19,223.94,149.64Z"/><path class="cls-11" d="M337.55,154.26a35.18,35.18,0,0,1-.79-5.74,40.79,40.79,0,0,1-3.1,4.86,4,4,0,0,1-6.93-1h0c-.1-.25-.18-.53-.28-.79-.1.13-.19.27-.3.4l-.07.09a57.84,57.84,0,0,1-5,5.4h0a46.13,46.13,0,0,1-12.75,8.75h0a33,33,0,0,1-15.14,3.12c-22.65-1.12-32-13.5-40.69-32.16a65.65,65.65,0,0,0,6.65,10c.87,1.07,1.76,2.11,2.68,3.1,7.79,8.3,17.43,13.43,28,14a36.76,36.76,0,0,0,4.07-.09h.11a36.09,36.09,0,0,0,6.78-1.13c.11,0,.21-.06.32-.09a39.42,39.42,0,0,0,5.3-1.9l.37-.17a42.65,42.65,0,0,0,6.65-3.7l.29-.2a48.47,48.47,0,0,0,4.55-3.65l.3-.29a56.28,56.28,0,0,0,5.58-5.92c.12-.14.24-.27.35-.41s.32-.36.47-.56a32.45,32.45,0,0,1-.48-4c-.34.48-.65,1-1,1.47l-2.15-6.63,3.08,2.47c0-.21,0-.41,0-.63s0-.49,0-.73l-4-4-3.85-11.88c.34-.52.66-1.06,1-1.6l7,2.08,2.62,3.59c.16-.4.3-.8.47-1.2l-1.11-1.8,1.69.5c.17-.4.34-.79.53-1.2L325,121l-4.38-7.13c.44-1.22.85-2.48,1.2-3.78l6.13-1,5.77,4.27.45-.75L330,108.74l6.27-1c-.07.61-.15,1.21-.22,1.82l1-1.7-.16-.23-.46-.69a.61.61,0,0,0-.07-.1s0,.07,0,.1l-8.2.16L326,105.14c-.77.26-1.61.46-2.41.7l1.74,1.29-2.83.05c.08-.36.17-.72.24-1.09l-1.47.43c0,.23-.09.46-.12.69-.17,1-.38,2.07-.61,3.07-.19.82-.39,1.63-.62,2.42s-.55,1.78-.86,2.63-.68,1.73-1.06,2.56-.81,1.71-1.26,2.52c-.17.31-.36.6-.55.9a27.26,27.26,0,0,1-1.54,2.31,25,25,0,0,1-2.27,2.68,21.66,21.66,0,0,1-1.75,1.59l-.32.26a17.51,17.51,0,0,1-1.66,1.14,15.13,15.13,0,0,1-3,1.36,11.67,11.67,0,0,1-1.27.4c-.41.1-.83.15-1.25.21s-.63.1-1,.12a14.24,14.24,0,0,1-1.85,0,14,14,0,0,1-3.43-.72,13.46,13.46,0,0,1-1.33-.51,21.27,21.27,0,0,1-8.66-7.56c-.32-.47-.64-1-.94-1.45a36.57,36.57,0,0,1-2.95-6L283,115a46.63,46.63,0,0,1-2.56-10.22c0-.32-.1-.62-.13-.94-.16-1.33-.26-2.69-.31-4.06,0-.26,0-.53,0-.79,0-.68,0-1.35,0-2,0-.15,0-.3,0-.45,0-.32,0-.65,0-1s0-.91.07-1.36c0-.61.1-1.21.16-1.81,1.21-11.43,6.11-20.71,12.7-24.79.34-.21.7-.39,1.05-.58l.08,0,.38-.19a14.34,14.34,0,0,1,3.67-1.2c.42-.07.84-.16,1.26-.19s.61,0,.92,0,.74,0,1.12,0,.86.12,1.28.19a14.82,14.82,0,0,1,3.05.83,16,16,0,0,1,2,1,21.33,21.33,0,0,1,1.86,1.23,24.08,24.08,0,0,1,2.05,1.79c.43.43.86.86,1.28,1.34s1,1.21,1.47,1.86a30.43,30.43,0,0,1,2.34,3.77c.46.85.89,1.75,1.3,2.67.28.65.55,1.31.81,2,.19.52.39,1,.56,1.58.63-.58,1.24-1.17,1.84-1.78s1.08-1.07,1.6-1.64l1-1.43.33-.07c.44-.51.88-1,1.31-1.52.13-.15.25-.33.37-.49l-.65.05,6.17-9.14.27.69c1.21-2,2.37-4.13,3.47-6.35C328,43.73,315.2,30.51,299.89,27.1,315.7,29,329.23,40.18,337.07,57.69a123.69,123.69,0,0,0,5-13.36h0a4.08,4.08,0,0,1,1.16-1.74,3.2,3.2,0,0,1,.27-.25C337.22,28.21,327.27,16,311.86,6.27,305.15,2,291.89-.09,279,0a88.68,88.68,0,0,0-19.13,2c9.37-1.39,19.43-.35,29.78,1.06-4.82-.2-9.23-.37-13.32-.44a25.92,25.92,0,0,1,9.19,3.49,65.58,65.58,0,0,0-21-3.27,57.79,57.79,0,0,0-13.24,2.26c-.19.1-.41.19-.58.29-.94.55-1.86,1.18-2.79,1.78a72.54,72.54,0,0,1,8.5-.9c8-.74,16.44,0,25.08,1-4.53-.1-8.69-.19-12.56-.19a27.8,27.8,0,0,1,8.89,3.13,69.67,69.67,0,0,0-19.06-2.84A61.25,61.25,0,0,0,243.93,10c-1.14.85-2.27,1.72-3.38,2.65a76.36,76.36,0,0,1,12.63-.87,152,152,0,0,1,20.63.75c-4.22,0-8.11,0-11.74,0a29.89,29.89,0,0,1,8.5,2.76A74.71,74.71,0,0,0,254,12.87,66,66,0,0,0,236.71,16c-1,.94-2,1.93-2.9,2.93a81.33,81.33,0,0,1,16-.72c5.51-.18,11.15.1,16.9.43-4,.06-7.6.14-11,.27a32.67,32.67,0,0,1,8.19,2.39,80.9,80.9,0,0,0-15.33-2,70.3,70.3,0,0,0-18.34,3.57c-.88,1-1.75,2.08-2.59,3.17.25,0,.51-.05.76-.08l1.13-.11a88.3,88.3,0,0,1,15.61-.36c5-.21,10-.07,15.14.06-3.69.15-7,.31-10.24.5a36.39,36.39,0,0,1,7.83,2.05,88.17,88.17,0,0,0-13.94-1.58,97.16,97.16,0,0,0-9.79,1.35c-1.8.35-3.57.76-5.31,1.25-1.53.43-3,.9-4.55,1.46-.28.4-.54.81-.81,1.21-.39.58-.78,1.15-1.16,1.74a.21.21,0,0,0,0,.06l-.21.3.26,0c.92-.1,1.84-.16,2.77-.24l.62-.05c1.39-.11,2.76-.2,4.14-.26a92.48,92.48,0,0,1,9.42,0c.59,0,1.17.09,1.76.14,4.42-.24,8.91-.25,13.48-.29-3.46.22-6.6.46-9.61.71a40.91,40.91,0,0,1,7.65,1.76,97.24,97.24,0,0,0-12.77-1.21h-.28c-1.72.19-3.41.41-5,.66-1.46.23-2.9.46-4.3.74-.7.14-1.37.33-2.06.49-1.16.26-2.32.52-3.46.84-.4.11-.79.26-1.19.37-1.12.34-2.24.68-3.37,1.08-.35.12-.71.27-1.07.4l-.12.21c-.45.81-.89,1.63-1.32,2.45a2.1,2.1,0,0,0-.13.26l-.15.29-.07.15.11,0c1.22-.1,2.44-.19,3.67-.27,2.31-.16,4.63-.28,6.93-.33l1.32,0h0c2,0,4,0,6,.13.8,0,1.58.09,2.36.15,1.14-.08,2.29-.16,3.44-.22,2.78-.15,5.59-.25,8.43-.38-3,.28-5.72.56-8.36.85l-.58.07.6.08A44.33,44.33,0,0,1,248,43.79c-2.25-.3-4.49-.5-6.72-.65q-2.73-.18-5.43-.24l-.43.06q-3,.42-5.88,1h0q-3.17.59-6.21,1.35l-.9.23c-.88.23-1.77.49-2.64.75l-1,.31c-.9.28-1.8.54-2.71.86-.51.18-1,.41-1.56.6l-.18.43c-.27.61-.54,1.22-.8,1.85l-.13.28c-.1.25-.21.49-.32.74,1.46-.1,2.92-.19,4.39-.27l2.92-.14c3.12-.13,6.24-.2,9.26-.14h.48c1.57,0,3.13.11,4.64.23l1.74-.16,1-.09,4.79-.39,2.87-.24-2.85.37c-1.69.22-3.34.44-4.91.67l-.51.07.48.06a50.87,50.87,0,0,1,5.2.84c.5.11,1,.18,1.51.31-.49-.05-1-.07-1.48-.12-1.81-.15-3.6-.27-5.39-.34l-.54,0c-1.3,0-2.61-.09-3.9-.1-.87.14-1.71.29-2.55.44h0l-.17,0h0c-1.19.21-2.38.44-3.53.68-1.62.33-3.23.7-4.81,1.09l-2.55.66-2,.58-1.11.35-1.47.46c-.86.28-1.75.58-2.63.9l-1.16.42a2.83,2.83,0,0,0-.11.31h0c-.08.25-.19.49-.27.75s-.08.27-.13.41l0,.09s0,.1,0,.15c-.12.35-.21.7-.32,1.05l-.06.2c0,.08-.05.16-.07.24,3.6-.18,7.25-.35,10.87-.43h.4l.7,0h2.7c2.15,0,4.28,0,6.35.13h0l.55,0,1,.07,4.53-.55H237l1.36-.17,1.76-.22.52-.06h0l1-.12-1,.17h0l-.56.09-1.7.28-1.48.25-1.46.25-1.38.25.43,0c.71.06,1.42.11,2.11.19.26,0,.5.09.75.13.47.06.92.14,1.38.22l.41.07.21,0,.77.13c.23,0,.48.06.71.11l.18,0h-.18l-.73,0-.83,0h-.06l-.41,0c-.73,0-1.46-.08-2.19-.1h-.22c-.92,0-1.82,0-2.73-.05h-1.25c-.53,0-1.06,0-1.59,0h-.39L227,62c-.52.12-1.07.22-1.58.33l-.66.16-1.75.41a148.26,148.26,0,0,0-15.21,4.49c-.1.4-.2.8-.29,1.21l-.06.22a.75.75,0,0,1,0,.16l-.33,1.36v0l0,.12h.54l.77,0,6.78-.2h.31l.43,0,2.82-.07h1.33l2.58,0h1.56l.88,0h.09l2.06,0,1.05,0h1l.52,0H230l.71,0,.83-.13h0l1.27-.2.14,0c1-.15,2-.32,2.94-.49l1.8-.31c.39-.06.77-.12,1.17-.2l-1.19.25-1.83.38-2.89.6-.25.06-.72.16.64,0,.33,0c.81.06,1.61.15,2.41.24l1.63.2c.37.05.75.09,1.11.15l.55.06h-1.73l-1.72,0-2.26,0H230.4l-.8,0h-.8l-.59.13h0l-.27.06-.36.09-.64.16c-.26,0-.5.12-.75.18-1.6.38-3.18.78-4.73,1.18l-3,.8-.17.05-2.27.65-.9.25c-2.76.81-5.62,1.71-8.65,2.71l-.52.17-.26.09a.5.5,0,0,0,0,.12v0c0,.21-.08.4-.11.61l-.06.29c-.09.6-.17,1.22-.26,1.82h1.24l3.31,0h.41l1.58,0,.84,0,3.95-.09,3.57-.07h.75l3,0h3.88l.36,0h.55l.91,0h.2l.44-.09.58-.12.24,0,.35-.07,1-.2.5-.12.54-.12.19,0,.42-.09.4-.09.65-.15h0c.36-.08.72-.15,1.08-.24l.45-.1.22,0-.22.06-.44.11-1.05.27h0l-.65.16-.38.1-.52.13-.69.18h-.06l-.66.17-.85.22-.48.13-.1,0h.92l1.23.08.35,0,.55,0,.19,0,1.1.1h.06l1,.09c.31,0,.64.05,1,.09h-1.86c-.66,0-1.31,0-2,0h-.63l-1.59,0h0l-.45,0h-.21l-.51,0h-.31l-1.3.05h-.12l-.11,0-.13,0-.31.08-1.27.36-.86.24-.19,0-1.94.54-1.48.43-2,.59-.75.22-1.05.31-3.85,1.15-1.06.32-.24.07-1.11.34-2.93.9L204.38,88c0,.22,0,.44,0,.66l0,.42-.06.82,0,.44c0,.11,0,.22,0,.33l.54,0H205c.64,0,1.28,0,1.92,0h1.13c.92,0,1.83,0,2.74,0h1.32l3.23-.07.86,0,1.24,0,2.51-.06,2.6,0,1.69,0,2.59,0H227c.8,0,1.6,0,2.4,0h.21l2.19-.56,1.13-.33.17,0,.27-.08.2-.06h.06l.2-.06c.62-.18,1.23-.34,1.86-.53l-1.84.57-.24.08h0l-.28.08-.2.06-.33.1-1.05.33-1.45.45,1.14,0,.27,0,.7,0,.76,0h.17l.4,0,.63,0h0l.68,0,.26,0h.05c.27,0,.55,0,.81,0l-1,0h-.28l-.48,0H234l-.29,0-.51,0h-.08l-.3,0L232,91l-.92,0H231l-1.86.11-1.1.07-1.28.41-.3.1-3.13,1-3.45,1.11-1.07.35-2.51.79-.63.19q-2.53.8-5.29,1.62l-.3.09c-1.93.57-4,1.15-6.16,1.76,0,.8,0,1.61,0,2.41.69,0,1.37.1,2.05.13l.84,0c1.43.05,2.86.07,4.3.07.95,0,1.9,0,2.85,0,1.21,0,2.42,0,3.63-.08h.3l2.06-.06.9,0,.63,0,1.21,0,2.18-.07.61,0h.28l.4,0h2.55l1.5,0,.58-.18c.85-.27,1.71-.58,2.57-.88l.28-.09,1.08-.38.68-.24-.68.25-1.08.4-.08,0-2.81,1-.08,0h.08c1,0,2,0,3,.06l1,0h.57l.82,0-1.21.09-.28,0h-.1l-.81.06-3,.23h-.09l-1.76.15-1.77.67-1,.39-1.4.52-1.46.55-1.79.64h0c-1,.37-2.1.74-3.17,1.1-3,1-6.32,2-10,3l-.42.11-.29.08c-1,.26-2,.51-3.07.77l-.1,0v.1c0,.12,0,.24,0,.36l.06.69c0,.32.08.64.11,1l1.11.11c1.26.1,2.52.18,3.78.22,1,0,2,.08,3.07.08s2.1,0,3.15,0l2.61-.06h.2l3-.12,4.07-.17,1.55-.07,1.2,0h.6c.84,0,1.69-.07,2.54-.09l.63-.24c.81-.32,1.62-.68,2.43-1,.44-.19.87-.36,1.31-.56l-1.31.59-2.75,1.24c.95,0,1.91,0,2.86,0h1.59c.28,0,.55,0,.82,0l-.81.08-1.58.17-3.77.4-.62.07-2.2,1-.47.21-2.17.94-.58.24c-1.65.69-3.32,1.35-5.07,2-1.12.4-2.27.79-3.47,1.16-.58.19-1.17.37-1.78.55l-1.44.4c-2.23.62-4.67,1.2-7.37,1.75,0,.3.11.59.16.88s.11.59.16.89c1.82.25,3.64.42,5.48.51h.33c.85,0,1.7.1,2.56.11s2,0,3,0h.19c.78,0,1.55,0,2.32,0,1.68-.06,3.36-.15,5-.24l1.07-.07,4.31-.26,2.95-.17c.73-.35,1.47-.75,2.21-1.13.46-.24.92-.46,1.38-.72l-1.37.75-2,1.09.82,0,1.29,0,1.93-.07,1.35,0-1.33.18-1.92.26-2.51.34-.93.12c-.88.48-1.75.94-2.62,1.38-1.43.75-2.88,1.45-4.37,2.12l-.43.19a63.13,63.13,0,0,1-10,3.41q-1.5.38-3.15.72c-1.07.22-2.2.44-3.38.64l-.24,0,.09.36c.08.32.15.64.23,1,.83.15,1.65.27,2.48.38s1.79.23,2.68.3a78.58,78.58,0,0,0,10.07.11l.92,0c3.74-.2,7.54-.53,11.44-.84.21-.12.42-.26.62-.39.74-.44,1.47-.88,2.22-1.38l.05,0-.05,0-2.21,1.45-.46.31.48,0,2.41-.16c.92-.06,1.82-.13,2.75-.18l-2.71.44-2.42.41-1.66.27a56.3,56.3,0,0,1-10.67,5.67c-.75.28-1.53.55-2.34.82a61,61,0,0,1-10.56,2.29l.27.7a45.79,45.79,0,0,0,9,1.22c1.14,0,2.29,0,3.44,0,4.19-.06,8.46-.46,12.9-.92l2.41-.25,1-.76c.41-.3.82-.62,1.23-1l-1.22,1-.88.7,1-.1c1.64-.16,3.3-.33,5-.47l-4.92,1-2.06.39c-.53.42-1.07.83-1.6,1.23a35.48,35.48,0,0,1-13,6.43,51.9,51.9,0,0,1-6.54,1.25l-1.18.13c.34.1.67.14,1,.23a39.22,39.22,0,0,0,6.7,1.12,64.57,64.57,0,0,0,11.85-.21c2.14-.21,4.33-.47,6.57-.76l1.55-.2c.58-.5,1.15-1,1.74-1.59L244,152.41c2.05-.26,4.14-.52,6.3-.76-2.48.55-4.85,1.1-7.15,1.6l-.61.58a29.74,29.74,0,0,1-9,6.2,34.64,34.64,0,0,1-9.48,2.37,35.7,35.7,0,0,0,7.7,1.17,70.71,70.71,0,0,0,13-.82l1.91-.27,2.72-.41c.46-.49.92-1,1.38-1.54-.4.52-.8,1-1.2,1.52,2.11-.32,4.28-.66,6.55-1-2.53.64-4.93,1.27-7.25,1.83-3.66,4.46-7.46,8-15.69,9.24,7.21,1.62,14.4.55,22.83-.92.4-.53.8-1.07,1.2-1.64-.32.54-.65,1.07-1,1.6,2.13-.38,4.34-.77,6.65-1.16-2.52.73-4.9,1.42-7.2,2-2.75,4.31-5.82,7.74-12.46,9.18,6.38,1.09,12.85,0,20.48-1.5.39-.62.79-1.27,1.19-2l-.85,1.9,6.57-1.31c-2.45.79-4.76,1.52-7,2.19-2,4.05-4.35,7.32-9.53,8.9,5.64.62,11.48-.47,18.37-2,.4-.78.79-1.58,1.19-2.46-.23.81-.46,1.59-.71,2.35l6.38-1.42c-2.34.82-4.55,1.59-6.67,2.29a14.85,14.85,0,0,1-3.89,6.47,106.21,106.21,0,0,0,13.05,1c8.24.13,16.59-.77,23.11-3.44,15.75-6.45,27-17.72,34.64-32-.08-.17-.15-.36-.23-.54A32,32,0,0,1,337.55,154.26Zm-17.82-38,2.61,3.58-3.56-1.58C319.11,117.57,319.43,116.91,319.73,116.22ZM295.64,34,297,51.17l-3.76,10.17c-.23.06-.47.15-.7.22l-4.45-12,.73-15.31a29.33,29.33,0,0,1,6.23-.33C295.24,33.93,295.43,34,295.64,34Zm-8.59,12.81-4.11-11.09a30.55,30.55,0,0,1,5.55-1.42Zm-4.45-11,4.12,13.93-1.66,14.44-6.33-9.27L276,39.26A33.94,33.94,0,0,1,282.6,35.82Zm-6.8,3.58,1.55,13.51-6.55-9.6A38.85,38.85,0,0,1,275.8,39.4Zm-5.25,4.15L277.71,56l1.52,13.2L270.1,61.9l-4.93-12.29A48.63,48.63,0,0,1,270.55,43.55Zm9.81,81.89L275,129.51l3-7.41A34.34,34.34,0,0,0,280.36,125.44ZM255,121.32l3-.27,6.58-.6-4,5.83-2.49,3.62A79.6,79.6,0,0,1,255,121.32Zm-2.5-30.91,1.16,0H254l3.83-.11,1.48,0h.65l1.22,0h.43l.59.53,1.06.93L268.15,96l2.9,2.56-2.8,1.9-1.17.79-4,2.72-8.94-2.27-.87-.22-1.18-.3-.46-.11-.15,0c-.13-2.26-.19-4.55-.15-6.87v0c0-.31,0-.62,0-.93s0-.36,0-.54a2.46,2.46,0,0,1,0-.28c0-.17,0-.33,0-.5l0-.65c0-.26,0-.52,0-.78l.93,0Zm19.75,15.87-7.13-1.81,4.51-2.44,1.32-.71.73-.4c0,.22,0,.43.05.65,0,.38.05.77.08,1.15C272,103.92,272.09,105.11,272.28,106.28Zm-20.58-2.59c-.06-.72-.14-1.44-.18-2.16l0-.3.3.11,1.25.47.82.31L261.5,105l-8.87,6c-.32-1.9-.59-3.83-.79-5.79C251.79,104.72,251.75,104.2,251.7,103.69Zm6,16.74-2.73.59a84.25,84.25,0,0,1-2.15-9c0-.27-.08-.55-.13-.82l10.4-5.62,9.33,3.52-6.58,9.56Zm15.78-8.81a43.12,43.12,0,0,0,1.74,5l-7.12,1.54Zm-1.77-15.71-7.8-5.81,4.64-.12,3.78-.11q-.17,1-.3,2.07C271.85,93.24,271.74,94.56,271.68,95.91Zm4.55-18.74L271.6,65.64l7.16,7A39.2,39.2,0,0,0,276.23,77.17ZM273,86.27l-6.64-9.34,8.42,3.56A46.88,46.88,0,0,0,273,86.27ZM264.9,49.94l3.57,10.65L261.53,55A60.45,60.45,0,0,1,264.9,49.94Zm-3.64,5.57,8.2,8L274,77.22l-9.4-2.76L257.17,64A66.65,66.65,0,0,1,261.26,55.51ZM257,64.26l5.89,9.7-4.62-1.35-3.69-1.09c.32-1.14.67-2.26,1-3.36C256.09,66.84,256.53,65.52,257,64.26Zm-3.3,10.53c.24-1,.51-1.93.78-2.89l4.65,2,5,2.11,6.73,11.08-.37.06-5.12.77-2.36.35-1.36.21-.74-.55-.16-.12h0l-7.91-5.89-.47-.35c0-.08,0-.16,0-.24C252.78,79.07,253.22,76.91,253.73,74.79ZM252.33,82l1.9,1.69,4.08,3.6h0l1.63,1.44-.55.08-1.76.26-1.25.19-1.46.22-.54.08-1.1.17-1.18.18-.57.08,0-.74c0-.44,0-.89.07-1.32.05-.66.15-1.3.22-2,0,0,0-.07,0-.1h0l.06-.49C252.05,84.22,252.16,83.08,252.33,82Zm5.89,48.21,2.64-3.22,5.48-6.67,10.12-.92v0l-3.73,11.83-9.16,6.95-.85.64A69.54,69.54,0,0,1,258.22,130.18Zm4.59,8.76.79-.47,8.43-5-4,12.63a56,56,0,0,1-4.4-5.84C263.36,139.81,263.08,139.38,262.81,138.94Zm5.39,7.32,5.63-13.88,8.09-4.82-1,13.8-6.68,10.74A46.64,46.64,0,0,1,268.2,146.26Zm12.49-1.95-.85,11.61a38.62,38.62,0,0,1-5.31-3.58Zm1.47-1.91,7.22-9.38,1.82,12.72L287.46,159a33.23,33.23,0,0,1-7.25-2.8ZM293,159.92a30.09,30.09,0,0,1-5.26-.88l3.83-10.37,1.61,11.24Zm.57,0-1.08-13.74,4.15-11.23,4.76,12.84-.55,11.54A29.41,29.41,0,0,1,293.61,159.91Zm7.85-.68,1-8.7,2.79,7.55A29.54,29.54,0,0,1,301.46,159.23Zm4.38-1.34-3-10.3,1.66-14.43,6.45,9.45,1.93,11.46A34.65,34.65,0,0,1,305.84,157.89Zm7.48-4.13-.92-9,4.28,6.27A40.25,40.25,0,0,1,313.32,153.76ZM315,124.4l2.94,7.3-5-4.89A30,30,0,0,0,315,124.4Zm4.44,11,3.51,8.74a49.48,49.48,0,0,1-5.77,6.46l-5.07-8.83-1.34-12.94.25-.2Zm-10.57-5.06,1.38,8.19-3.83-6.68A23.05,23.05,0,0,0,308.85,130.39Zm-6.74,3.21-.48,10.06-2.79-9.45A19,19,0,0,0,302.11,133.6Zm-7.61.47-2.28,8.06-.68-8.72A19.52,19.52,0,0,0,294.5,134.07Zm-7.39-2.68-4.38,7.05,1.31-9.21A22.71,22.71,0,0,0,287.11,131.39Zm-5.88-62L279.44,59l4.38,7.63A29,29,0,0,0,281.23,69.38Zm6.16-5.44.49-10.26,2.55,8.64A22.82,22.82,0,0,0,287.39,63.94Zm8.31-3.08,1.59-5.64.44,5.51A17,17,0,0,0,295.7,60.86ZM304.86,62l1.93-3.1-.52,3.68C305.81,62.36,305.34,62.18,304.86,62ZM314,68.55l.36-.28-.19.47Zm6.64,11.34c-.05-.14-.11-.28-.16-.43l.64-.14Zm2.56-3-3.7.27a36.22,36.22,0,0,0-4-6.79l1.22-3.87,10.53-8.22a73.84,73.84,0,0,1,4,9Zm-5.7-13L321.87,50a61.76,61.76,0,0,1,5.27,8.19Zm4.33-14L315.69,65l-3.28,2a24.13,24.13,0,0,0-4.36-3.35L308.6,56l7.61-12.22A50.65,50.65,0,0,1,321.81,49.87Zm-13,3.16,1-14.13a41.39,41.39,0,0,1,6.2,4.71Zm-1.47,1.91-4.85,6.32a19.76,19.76,0,0,0-2.87-.48l-1.31-9.18,4.54-16.07a34.58,34.58,0,0,1,6.79,3.24Zm-4.59-19.43L297.9,48.68,295.8,34A30.1,30.1,0,0,1,302.76,35.51ZM250.75,152a102.48,102.48,0,0,1-12.14-33c-.1-.51-.2-1-.29-1.54-.58-3.31-1-6.7-1.3-10.13-.05-.58-.1-1.16-.14-1.75-.13-1.63-.23-3.26-.28-4.91v-.16c0-.45,0-.89,0-1.33s0-.58,0-.86c0-.74,0-1.48,0-2.23,0-.45,0-.9,0-1.36,0-.06,0-.11,0-.17s0-.32,0-.49,0-.42,0-.63c0-.47,0-.93.05-1.4s0-1,0-1.45c0-.13,0-.26,0-.4s0-.33,0-.5l0-.5v-.06l.06-.83c0-.53.07-1.07.11-1.59L237,85l0-.31,0-.12c0-.52.1-1,.16-1.56s.13-1.2.21-1.79l0-.19h0c0-.19.05-.39.08-.58q.65-4.77,1.65-9.32c0-.2.08-.4.13-.59.09-.4.18-.81.28-1.21.23-.95.46-1.9.71-2.83,0-.17.09-.34.14-.51.17-.64.37-1.27.55-1.9.49-1.64,1-3.26,1.55-4.84q.41-1.16.84-2.28c1-2.56,2-5,3.16-7.42.18-.36.34-.73.52-1.09,10.69-21.51,28.42-35,48.25-33.68a40.83,40.83,0,0,1,9.32,1.7,40.07,40.07,0,0,0-5.15-.67c-21.23-1.37-40,14.15-50.39,38.34-.46,1.07-.9,2.16-1.32,3.26q-1.43,3.7-2.59,7.63c-.77,2.64-1.46,5.34-2.05,8.12-.67,3.18-1.23,6.44-1.64,9.79h0l-.06.57c0,.24-.05.48-.07.72a.88.88,0,0,0,0,.17l-.09.87c0,.25-.06.49-.08.74h0c0,.22,0,.44-.07.66s0,.64-.08,1v.11c0,.28,0,.56-.06.84,0,.48-.07,1-.1,1.42l0,.41c0,.37-.05.75-.07,1.13,0,.14,0,.29,0,.43v.06c0,.77-.06,1.55-.08,2.33,0,.4,0,.79,0,1.2,0,.72,0,1.42,0,2.14l0,1.54c0,.7,0,1.4,0,2.1,0,.21,0,.42,0,.63s0,.27,0,.4c0,.56,0,1.11.07,1.66l0,.38c.06,1,.15,2,.23,3q.3,3.66.81,7.23c.07.52.14,1.05.22,1.58a107.65,107.65,0,0,0,9.12,29.87c8.46,17.56,21.32,30.45,36.29,35C272.88,178.22,259.94,167.47,250.75,152Z"/><path class="cls-11" d="M248.53,163l-2.59.6-.79.17A44.86,44.86,0,0,1,231,164.92a27.28,27.28,0,0,1-6.93-1.65c-.56-.21-1.12-.43-1.69-.68l-.58,0c.8,1.21,1.59,2.41,2.43,3.57s1.87,2.55,2.85,3.77c.05.05.08.11.13.16a31.35,31.35,0,0,0,3.75,1.41C239.64,169.82,244.13,167.45,248.53,163Z"/><path class="cls-11" d="M255.28,172.19c-8.93,2.38-16.42,3.5-24.29.24-.55.06-1.11.11-1.69.14a78.73,78.73,0,0,0,5.72,6,29.14,29.14,0,0,0,5.58,2.14C247.94,179.14,251.66,176.65,255.28,172.19Z"/><path class="cls-11" d="M236,179.46c.64.58,1.31,1.12,2,1.68l.94-.16A27.89,27.89,0,0,1,236,179.46Z"/><path class="cls-11" d="M263.11,180.73c-8.27,2.44-15.22,3.62-22.47,1-.57.07-1.18.12-1.81.17a72.17,72.17,0,0,0,7.67,5.57,26.5,26.5,0,0,0,4.72,1.54C257.22,187.57,260.24,185,263.11,180.73Z"/><path class="cls-11" d="M227.77,170.85c.32.39.66.74,1,1.11l.84-.14C229,171.53,228.39,171.2,227.77,170.85Z"/><path class="cls-11" d="M239.59,13.45l-1,.87a45.36,45.36,0,0,1,4.57-1.24C241.94,13.17,240.77,13.31,239.59,13.45Z"/><path class="cls-11" d="M233,19.78c-.5.53-1,1.09-1.45,1.64A49.51,49.51,0,0,1,239,19.35C236.9,19.45,234.89,19.59,233,19.78Z"/><path class="cls-11" d="M251.49,190.21c.1,0,.2.12.31.17,3,1.49,8.54,3,15.16,4.06a15.83,15.83,0,0,0,5-6C264.43,190.91,258.05,192.17,251.49,190.21Z"/><path class="cls-11" d="M224,161.56a61.73,61.73,0,0,0,10.19-3,32.56,32.56,0,0,0,8.33-4.95l.32-.26-.36.08c-2.44.52-4.78,1-7.07,1.3a41.66,41.66,0,0,1-11.5.28,28.9,28.9,0,0,1-7-1.8c-.24-.09-.48-.17-.71-.27.14.29.28.57.43.85,1.36,2.65,2.85,5.17,4.4,7.63.48.18,1,.36,1.42.51Z"/><path class="cls-11" d="M246.58,8.05l-.23.14L247,8Z"/><path class="cls-11" d="M211.12,141.2c4.26-1.14,7.93-2.15,11.12-3.16l2-.68A61.55,61.55,0,0,0,234.39,133c-3.48.57-6.8,1.07-10,1.36l-1.21.1a46.68,46.68,0,0,1-10.19-.28c-.86-.13-1.71-.29-2.57-.49-.63-.14-1.26-.31-1.89-.49.3,1.08.67,2.11,1,3.17.4,1.26.76,2.53,1.19,3.76C210.83,140.49,211,140.84,211.12,141.2Z"/><path class="cls-11" d="M204.83,114.28c.19,1.62.38,3.23.63,4.82,0,.19.07.38.1.57l2.39-.8c2-.64,3.83-1.22,5.6-1.76l1.81-.56,1.4-.43,3.41-1,2.81-.87,2.42-.77.12,0,2.45-.83.13,0,1.27-.47-1.11.13h-.09l-1.6.17-.27,0-.85.09c-1.51.16-3,.31-4.47.43-1,.09-2,.13-3.07.19l-.5,0c-.78,0-1.56.07-2.33.08-1.83,0-3.63,0-5.41-.13-.86-.06-1.71-.11-2.56-.21s-1.48-.25-2.21-.39l-.29,0c0,.12,0,.24,0,.36,0,.38.09.76.14,1.15Z"/><path class="cls-11" d="M204.27,108.66v.16l.87-.32.84-.3c1.13-.4,2.21-.76,3.28-1.11l.82-.28,3.53-1.1c1.75-.53,3.45-1,5.07-1.49l3.08-.87,1.39-.39.58-.17,1.17-.34,1.18-.34,1.63-.47-1.6.14-1,.09-.65,0-.22,0-2,.16-2.81.21h-.13l-.21,0c-1,.06-2,.12-3,.16l-.68,0c-.85,0-1.67,0-2.51,0s-1.91,0-2.85,0c-1.38,0-2.76-.12-4.11-.26-.31,0-.61-.09-.92-.12s-.73-.13-1.1-.18c0,.43,0,.85.06,1.28s.05.89.07,1.34C204.1,106,204.17,107.32,204.27,108.66Z"/><path class="cls-11" d="M204.06,92.83a2.29,2.29,0,0,0,0,.25c0,.27,0,.54-.06.81a1.08,1.08,0,0,1,0,.18c0,.24,0,.48,0,.72,0,1,0,2.09,0,3.14l1.92-.71q3-1.09,5.77-2l.07,0,1.58-.5c.94-.28,1.86-.54,2.77-.79l1.44-.4c1.12-.3,2.23-.59,3.33-.86l2.82-.71,2.7-.66-2.49.16-2.18.14-2.71.15c-1.23.07-2.45.14-3.66.18h-1c-1.64,0-3.26,0-4.86,0h-.09l-.52,0c-.81,0-1.61-.06-2.41-.12-.26,0-.53,0-.79,0h0l-.19,0c-.44,0-.86-.12-1.29-.16,0,.21,0,.42,0,.63Z"/><path class="cls-11" d="M206.54,72.84c0,.09,0,.18,0,.27-.1.46-.17.93-.26,1.39,0,.08,0,.16,0,.25v0c0,.18-.06.37-.1.56s-.11.62-.17.93c0,.14,0,.27-.07.41,2-.86,4-1.58,6-2.21,1.36-.45,2.71-.87,4-1.23.83-.22,1.64-.42,2.46-.62l1-.26.74-.17.82-.16,1-.2c1.22-.25,2.45-.5,3.66-.71l-1.83.06-.64,0h-.36l-1.12,0h-.36l-3.57.13-1.53,0h-.54l-1.11,0-.66,0h-.7c-.63,0-1.25,0-1.87,0-1.48,0-3,0-4.39-.09-.06.31-.14.6-.2.91S206.58,72.66,206.54,72.84Z"/><path class="cls-11" d="M211,84.86c1-.34,2.1-.69,3.12-1,.61-.18,1.2-.32,1.8-.48l.39-.1c.67-.18,1.35-.37,2-.53s1.55-.37,2.31-.55l2-.45,1.62-.35,1.47-.3-.87,0-1.79.09-.94,0-.62,0-2.49.11h-.37c-1.21,0-2.41.1-3.6.13-1.8.05-3.57.05-5.31,0h-.14l-.73,0c-.58,0-1.17,0-1.75,0s-1.29-.08-1.93-.13c-.05.3-.08.6-.12.9,0,.11,0,.22,0,.33,0,.28-.07.57-.1.86s-.07.49-.09.73,0,.2,0,.3,0,.34-.07.51c-.07.73-.16,1.45-.22,2.19,1.88-.77,3.7-1.43,5.47-2Z"/><path class="cls-11" d="M208.91,63.35l-.12.41c-.09.31-.2.62-.29.94-.16.57-.3,1.14-.45,1.71a69.68,69.68,0,0,1,9.83-3.35c1.58-.4,3.14-.77,4.7-1.07.83-.17,1.65-.31,2.47-.45l1.1-.2-1.19,0-2.67.07-3.72.1-2.76.07h-.07l-.93,0c-1.83,0-3.63.05-5.39,0-.1.35-.21.71-.32,1.07l0,.06C209,63,209,63.16,208.91,63.35Z"/><path class="cls-11" d="M211.16,56.37l.62-.24a61.15,61.15,0,0,1,6.89-2.37c.85-.24,1.71-.46,2.56-.66,1.28-.3,2.55-.56,3.82-.79l1.18-.21,1.32-.21-.82,0h-.55l-5.38.13h-.51l-2.35.07c-1.79,0-3.55.1-5.27.12l0,.09c-.15.37-.27.76-.42,1.14s-.17.47-.26.71c-.25.66-.49,1.32-.73,2A1.46,1.46,0,0,1,211.16,56.37Z"/><path class="cls-11" d="M215.73,46.54l.71-.29c.65-.25,1.31-.48,2-.7l.28-.1c1.22-.41,2.43-.78,3.65-1.1a65,65,0,0,1,7.06-1.45h0l.12,0h-.12c-2.7,0-5.35.11-7.91.21l-3.86.14-.85,0-.46.9-.51,1a1.79,1.79,0,0,1-.12.24c-.07.15-.15.29-.22.44s-.13.27-.19.4-.16.39-.25.59Z"/><path class="cls-11" d="M232.58,27c1-.22,2-.42,3-.58-1.28,0-2.55.09-3.8.15s-2.24.14-3.35.21l-1.43.11c-.6.77-1.2,1.52-1.77,2.32,1.13-.44,2.26-.82,3.4-1.17C229.92,27.67,231.25,27.32,232.58,27Z"/><path class="cls-11" d="M220.16,37l-.39.68c.56-.23,1.12-.44,1.67-.64s1.06-.39,1.6-.57c1.3-.42,2.61-.78,3.92-1.1,1-.26,2.09-.49,3.14-.69.68-.13,1.36-.25,2.05-.36l-2.1,0c-1.37,0-2.73.09-4.06.15l-3.51.19-1,0C221,35.52,220.6,36.3,220.16,37Z"/><path class="cls-11" d="M311.82,108.81l-2,.38c-2,5-5.49,8.16-9.5,7.89-4.39-.3-8.08-4.66-9.72-10.66-.07-.28-.16-.54-.22-.82a25.25,25.25,0,0,1-.59-4.07,1.62,1.62,0,0,0,0-.22c-.05-.72-.12-1.44-.1-2.18.14-9.5,5.15-16.87,11.18-16.46,3.74.26,7,3.46,8.88,8.12.8-.47,1.59-1,2.37-1.46-2.08-6.24-6.15-10.64-10.9-11-7-.48-12.82,8.09-13,19.13,0,.21,0,.43,0,.65v.11c0,.94.06,1.87.15,2.78,0,.11,0,.21,0,.32a29,29,0,0,0,.72,4.07c.07.29.16.56.24.84,1.94,6.82,6.2,11.74,11.23,12.09C305.34,118.68,309.56,114.8,311.82,108.81Z"/><path class="cls-11" d="M298.08,125.13c-.08,1.9.88,3.49,2.15,3.55s2.37-1.43,2.45-3.34-.89-3.49-2.16-3.55S298.16,123.23,298.08,125.13Z"/><path class="cls-11" d="M301.61,72.37a4.23,4.23,0,0,0-.7-2.6,2.25,2.25,0,0,0-.52-.58,1.83,1.83,0,0,0-.63-.26c-.1,0-.19-.11-.3-.11a.45.45,0,0,0-.11,0c-1.22,0-2.26,1.46-2.34,3.31s.89,3.49,2.15,3.55S301.53,74.27,301.61,72.37Z"/><path class="cls-11" d="M283.74,96.14a1.78,1.78,0,0,0-.76.44,3.94,3.94,0,0,0-1.17,2.77c0,.05,0,.09,0,.14,0,.23,0,.45.06.67.19,1.51,1,2.69,2.08,2.74s1.76-.76,2.17-1.93c0-.13.06-.27.1-.4a5.32,5.32,0,0,0,.18-1,4.51,4.51,0,0,0-.39-2,2.78,2.78,0,0,0-.16-.4A2,2,0,0,0,284.25,96,1.53,1.53,0,0,0,283.74,96.14Z"/><path class="cls-11" d="M287,86.77c1.27.06,2.36-1.43,2.44-3.34s-.88-3.49-2.15-3.55-2.37,1.44-2.45,3.34S285.75,86.71,287,86.77Z"/><path class="cls-11" d="M312.76,117.64a1.74,1.74,0,0,0,.58.2,2.11,2.11,0,0,0,1.81-1.22,4.49,4.49,0,0,0,.64-2.12c.08-1.9-.89-3.49-2.16-3.55s-2.36,1.44-2.44,3.34A3.45,3.45,0,0,0,312.76,117.64Z"/><path class="cls-11" d="M313.5,86.77c1.27.06,2.37-1.43,2.45-3.34a4,4,0,0,0-.86-2.78,1.89,1.89,0,0,0-1.3-.77,2,2,0,0,0-1.64.91,4.51,4.51,0,0,0-.3.58,4,4,0,0,0-.38,1.2,4.66,4.66,0,0,0-.12.65C311.27,85.12,312.23,86.71,313.5,86.77Z"/><path class="cls-11" d="M288.26,117.84c1.27.06,2.36-1.43,2.44-3.34s-.88-3.49-2.15-3.55-2.36,1.44-2.44,3.34S287,117.78,288.26,117.84Z"/><path class="cls-11" d="M351.76,117.81l-.24-.21c-.09-.06-.17-.14-.25-.2q-1.65-1.34-3.3-2.92l-.05,0c-.87-.84-1.75-1.71-2.62-2.67-.24-.26-.47-.57-.71-.85-.46-.52-.91-1-1.36-1.6s-.91-1.11-1.36-1.7v0l-2.12,3.5-1.44,2.42-1.05,1.78,0,.07-.2.33c-1.19,2-2.33,4-3.37,5.94h0c-.47.86-.89,1.7-1.29,2.53-.12.24-.21.48-.32.73a42.89,42.89,0,0,0-1.8,4.49c-.09.26-.17.52-.26.79a36.58,36.58,0,0,0-1.07,4.24c0,.23-.1.47-.14.7a30.07,30.07,0,0,0-.4,5.53c0,.18,0,.35,0,.53s0,.51,0,.76,0,.49.06.73a28.38,28.38,0,0,0,.91,4.91,32.53,32.53,0,0,0,1.09,3.29c.25-.32.52-.7.79-1.11l.28-.43c.2-.3.39-.59.59-.93.12-.18.24-.39.35-.59s.39-.65.59-1,.26-.48.4-.72.39-.71.59-1.09l.43-.8q.31-.6.63-1.23l.44-.85q.33-.67.69-1.38c.14-.29.28-.57.42-.87.25-.5.49-1,.74-1.52l.43-.9.8-1.71L339,135l.87-1.9.37-.81,1.05-2.33.18-.42c1.74-3.91,3.54-8.08,5.33-12.33l0,0c.31-.74.62-1.49.94-2.23v0c-.27.94-.54,1.91-.81,2.83-.21.72-.4,1.41-.61,2.11q-.75,2.58-1.44,5c-.32,1.1-.61,2.15-.91,3.21-.2.73-.41,1.48-.61,2.19q-.71,2.61-1.31,5.1a55.26,55.26,0,0,0-1.05,6,34,34,0,0,0,.84,13.49c.05.19.11.39.17.58a28.12,28.12,0,0,0,2.42,5.67,33.27,33.27,0,0,0,2.13,3.35c.07-.16.14-.36.2-.54s.2-.5.3-.79.14-.43.2-.64.21-.63.31-1,.13-.48.2-.72.21-.75.32-1.17c.06-.25.12-.53.19-.79.11-.44.21-.86.32-1.33s.16-.7.24-1,.18-.84.28-1.28.19-.93.28-1.4.16-.75.24-1.14.2-1.06.3-1.59c.07-.38.15-.75.22-1.13.11-.59.21-1.2.32-1.81.06-.36.13-.7.19-1.07.13-.74.26-1.5.39-2.27l.12-.71c.15-.9.3-1.81.45-2.74,0-.12,0-.24.05-.36,1-6.59,2.07-13.84,3-21-1-.64-2-1.32-2.94-2.09Z"/><path class="cls-11" d="M374.77,122.9c-.6-1.59-1.2-3.17-1.8-4.77-1.33-.52-2.68-1.11-4.06-1.78Q371.68,119.67,374.77,122.9Z"/><path class="cls-11" d="M474,156.17c-4.26-3.37-8.51-6.74-12.7-10.1l-1-.84-.11-.09-1.36-.93-1.95-1.37c-13.19-9.28-26.38-19.67-41.91-31.06l-.71.16,42.14,34.37,2.43,2,9.52,7.77c-.72-.29-1.41-.58-2.09-.9-9.34-4.26-16.61-11.72-54.51-42.77a49,49,0,0,1-15.46-.29l1.82,2,.51.56c1.08.49,2.11,1,3.21,1.48a12.61,12.61,0,0,1-1,.93c3.57,3.9,7,7.68,10.33,11.33q3,3.27,5.82,6.39l1.39,1.53c2.58,2.8,5.09,5.51,7.58,8.14l.34.36q3.92,4.14,7.73,8c4.6,4.59,14.25,9.88,24.8,14.32,16.54,6.95,35.29,11.82,40.21,8.57q-9.71-7.41-19.1-14.8C478,159.29,476,157.73,474,156.17Z"/><path class="cls-11" d="M521,147.34q-4.11-2-8.17-4.06L508.42,141c-2.52-1.27-5-2.54-7.53-3.81L496.52,135c-2.47-1.27-4.95-2.54-7.39-3.81l-.8-.42-.36-.19c-1.13-.44-2.24-.86-3.39-1.34-.23-.1-.45-.17-.69-.27q-2.19-.93-4.34-1.89c-18.48-8.13-35.45-17.41-56.4-27.51l-2.18-1-.48,0c-1.37.16-2.79.28-4.26.34l4.18,2.59c2.84.83,5.71,1.63,8.65,2.34a11.76,11.76,0,0,1-1.66,2,626.32,626.32,0,0,0,55,30.5c-18.81-10.86-36.2-22-55.35-34.27l57.87,30.72,15.3,8.12a27.4,27.4,0,0,1,4.57,2.84c6.93,5.88-33.56-5.37-51.73-16.92-7.35-4.67-16.8-11.17-28.41-18.82a28.49,28.49,0,0,1-6.27,2.9c-.6.2-1.21.38-1.84.55,8.27,6,16,11.8,23.34,17.2,6.34,4.66,12.42,9.05,18.32,13.11l.67.46c1.22.83,2.44,1.67,3.65,2.48,3.41,2.28,8.47,4.37,14.39,6.19,17,5.23,41.14,8.13,54.11,6.31a28.53,28.53,0,0,0,3.94-.79l.09,0c.45-.13.88-.27,1.27-.42a10.13,10.13,0,0,0,1.19-.52q-6.3-3-12.43-6.06Z"/><path class="cls-11" d="M542,113c-6.39-1.69-12.8-3.46-19.22-5.26h-.09a91.62,91.62,0,0,1-12-.08c-1-.07-2.08-.16-3.09-.28a57.75,57.75,0,0,1-6.87-1.23c-1.42-.35-2.87-.74-4.31-1.11l25.74,8c31.62,9.8-16.67,10.89-54.17-4.15-8.85-3.52-19.82-8.54-33.19-14.37a39.8,39.8,0,0,1-8.43,3c-.6.14-1.22.27-1.85.4l-.37.08,5.25,2.5c7.39,3.55,14.44,7,21.23,10.22,11,5.29,21.39,10.11,31.33,14.2,1.77.73,3.59,1.37,5.45,2,2.5.8,5.08,1.48,7.71,2,23.07,5,50.18,1.62,64.48-3.58,1.35-.49,2.59-1,3.7-1.52h0c.64-.3,1.23-.61,1.78-.91l.39-.23c.4-.23.77-.46,1.12-.7l.41-.29a10.28,10.28,0,0,0,.84-.67l.32-.28a6.83,6.83,0,0,0,.82-.93C561.2,118,553.4,116,545.58,114Z"/><path class="cls-11" d="M503.74,112.27c-17.11-5.69-38-13.57-62-22.59a23.9,23.9,0,0,1-3.16,2.59C463.19,100.31,485.26,107.2,503.74,112.27Z"/><path class="cls-11" d="M562,81.14l-10.25-1.3L545.42,79l-9-1.2-6.77-.93-3.94-.53c-2.53.2-5.12.35-7.8.42-1.34,0-2.71,0-4.08,0-4.77,0-9.75-.14-15-.56h0l37.46,6.31c25.52,4.3,1.68,20.79-52.71,8.22C471.65,88,455.91,82.6,436.14,76.62a44.58,44.58,0,0,1-6.55,2.78,50.93,50.93,0,0,1-5.9,1.56l-.1,0,5.69,1.69.31.1c5,1.14,10,2.18,15.2,3-.26.46-.56.93-.88,1.39l11.95,3.7L469.47,95c9.39,2.84,18.32,5.44,26.91,7.64a52,52,0,0,0,9.54,1.32c1.32.08,2.71.12,4.13.14h.2q2.21,0,4.53,0h.28c1.57,0,3.17-.12,4.81-.22h.31c1.64-.11,3.31-.24,5-.4l.71-.07q2.55-.24,5.13-.57l.22,0c1.72-.22,3.44-.46,5.17-.73l.45-.07c1.71-.27,3.42-.57,5.12-.88l.77-.15c1.71-.32,3.42-.67,5.1-1l.19,0q2.46-.54,4.86-1.16l.63-.15c1.57-.41,3.12-.84,4.63-1.28l.77-.23c1.53-.46,3-.93,4.47-1.43l.17-.06c1.39-.48,2.73-1,4-1.5l.63-.25c1.27-.52,2.48-1,3.63-1.6l.65-.32c1.16-.57,2.27-1.15,3.29-1.74l.08-.06c1-.58,1.88-1.18,2.72-1.79L579,88a20,20,0,0,0,2.14-1.87l0,0c.11-.11.2-.22.3-.33a13,13,0,0,0,1.59-2q-8-.94-15.81-1.91Z"/><path class="cls-11" d="M441.92,73.05c28,4.93,53.66,9.19,83,12.5-25.4-3.43-50.78-9-79.79-15.13C444.1,71.34,443,72.23,441.92,73.05Z"/><path class="cls-11" d="M467.25,39c-.37.92-.78,1.81-1.23,2.68-.16.3-.33.6-.5.89-.33.59-.68,1.16-1.06,1.72L547,43.21c43.62-.57,4.25,28.08-58.35,20.32-10.23-1.27-21-3.26-34-5.21a49.25,49.25,0,0,1-4.57,6.83c-.15.2-.32.37-.47.56,15.91,2.7,30.51,5.35,44.18,7.53,3.2.51,6.37,1,9.48,1.45.68.1,1.38.17,2.08.24a67.59,67.59,0,0,0,8.13.4c1.32,0,2.66-.06,4-.14l.42,0a101.7,101.7,0,0,0,11.46-1.39l.64-.11c1.86-.34,3.73-.73,5.59-1.16l.79-.19c1.88-.45,3.74-.93,5.6-1.46l.47-.14q2.87-.82,5.69-1.78l.09,0c1.85-.62,3.67-1.29,5.47-2l.72-.27c1.73-.68,3.42-1.38,5.09-2.11l.75-.34c1.67-.75,3.32-1.52,4.92-2.31l.35-.18q2.37-1.2,4.59-2.44l.38-.21c1.47-.83,2.87-1.67,4.22-2.53l.69-.43c1.3-.84,2.55-1.7,3.74-2.55l.57-.43c1.2-.89,2.35-1.78,3.4-2.68l.17-.15c1-.88,2-1.75,2.82-2.63l.36-.36a32.3,32.3,0,0,0,2.25-2.6l.38-.49A22.26,22.26,0,0,0,590.56,42c.07-.12.13-.24.19-.36l.2-.41a13.29,13.29,0,0,0,1-2.59Z"/><path class="cls-11" d="M458.51,50.83c34.86.08,62.88-.75,86.87-2.38-27.81.63-53.21-.58-83-1.47A32.18,32.18,0,0,1,458.51,50.83Z"/><path class="cls-11" d="M394.58,112.76l-1-1.2q-1.28-.3-2.58-.66C392.2,111.52,393.37,112.16,394.58,112.76Z"/><path class="cls-11" d="M434.45,160.7c-2.59-3-5.18-6.08-7.74-9.11-2-2.33-3.91-4.66-5.86-7q-3.21-3.84-6.39-7.67t-6.5-7.85l-5.4-6.56c-1.15-1.42-2.31-2.83-3.46-4.24h0a16.86,16.86,0,0,1-3,1.4l31.27,37.81a5.34,5.34,0,0,1-1.68-.91c-5.29-3.76-17.71-18.38-32.16-36.14a29,29,0,0,1-10,.42c-1.12-.13-2.28-.32-3.47-.57l-.44-.1-1-.24c-.73-.18-1.48-.39-2.24-.62.39,1,.77,2.06,1.15,3.08a248.08,248.08,0,0,1,8.39,26,44.68,44.68,0,0,1,1.17,6.67c-3.42-8.53-7.52-19.28-11.72-30.42a14.64,14.64,0,0,1-5.77.74,24.54,24.54,0,0,1-2.45-.28c-.19,0-.39-.09-.59-.13l-.47-.11a29.8,29.8,0,0,1-5.81-1.91,37.24,37.24,0,0,1-3.85-2v0c-.29,2.93-.56,5.75-.79,8.47l-.06.64c-.23,2.78-.43,5.46-.55,8.06-.06,1.17-.09,2.3-.09,3.4,0,12.52,3.57,20.43,7.84,25.92.61.78,1.23,1.51,1.87,2.2.77.85,1.56,1.64,2.34,2.37.1-.47.19-1,.27-1.58,0-.19.06-.4.08-.6.06-.41.11-.83.16-1.28,0-.26.05-.52.07-.79q.06-.66.12-1.38l.06-.89c0-.52.06-1,.08-1.59,0-.3,0-.6.05-.91,0-.68.05-1.4.07-2.13,0-.2,0-.38,0-.58,0-.91,0-1.86,0-2.84,0-.41,0-.84,0-1.26,0-.6,0-1.21,0-1.83s0-1,0-1.51,0-1.14,0-1.73,0-1.1,0-1.67l0-1.67c0-.62,0-1.24,0-1.88,0-.44,0-.89,0-1.34-.06-2.66-.15-5.4-.25-8.21l0-.95c0-.89-.07-1.78-.11-2.68,0-.34,0-.67,0-1,0-.93-.08-1.87-.13-2.81l0-.69q.94,4.13,1.95,8.05c.39,1.5.79,3,1.19,4.44,6.43,22.74,18.07,31.14,27.84,35.61-.07-.61-.18-1.29-.3-2-.05-.23-.1-.49-.15-.73-.1-.52-.21-1-.33-1.61-.07-.31-.15-.63-.23-1-.13-.55-.27-1.11-.42-1.7-.09-.36-.19-.73-.29-1.1-.16-.61-.34-1.25-.52-1.9-.11-.38-.21-.75-.33-1.14-.22-.77-.47-1.58-.72-2.4l-.26-.87c-.34-1.11-.71-2.25-1.09-3.43-.14-.44-.29-.89-.44-1.34l-.79-2.38c-.19-.56-.39-1.13-.58-1.7l-.76-2.19c-.21-.62-.43-1.24-.65-1.86s-.52-1.49-.79-2.24l-.69-1.93c-.28-.78-.57-1.56-.86-2.35l-.69-1.91c-.38-1-.78-2.09-1.17-3.15l-1.1-2.94-.93-2.48-.88-2.29-.85-2.23c-.31-.8-.62-1.61-.94-2.42-.13-.36-.27-.72-.41-1.07l.51.84c.39.66.78,1.29,1.17,1.94l3.29,5.4c.49.8,1,1.6,1.47,2.38,1,1.66,2,3.28,3.05,4.89l1.32,2.1c1.43,2.23,2.84,4.41,4.26,6.53,8.75,13.06,39.95,34.29,55.92,33.07q-6.54-7.44-12.9-14.87C437.65,164.48,436.05,162.59,434.45,160.7Z"/><path class="cls-11" d="M360.5,121.4a27.58,27.58,0,0,0,5.76,1.92l.88.17a13.33,13.33,0,0,0,5.7-.16c-2.14-2.39-4.15-4.82-6.09-7.26-.39-.49-.79-1-1.17-1.47-.47-.26-.93-.53-1.4-.81a73.77,73.77,0,0,1-6.58-4.43c-.46-.35-.93-.68-1.4-1-1.16-.91-2.33-1.89-3.52-2.91h0l-.71-.62-.46-.4a8.13,8.13,0,0,1-.88.11,14.35,14.35,0,0,1-6.26-1l-.48-.18-.33-.15a21.33,21.33,0,0,1-2.72-1.4,28.61,28.61,0,0,1-3.41-2.41c1.05,1.73,2.13,3.37,3.24,4.9.6.82,1.2,1.63,1.81,2.39.3.39.61.76.92,1.13.61.73,1.21,1.44,1.83,2.12.39.43.79.85,1.19,1.26.63.66,1.27,1.29,1.91,1.89l.18.17c1.06,1,2.12,1.91,3.19,2.75l.26.21,0,0,.54.43c.81.61,1.61,1.17,2.4,1.7.58.38,1.15.76,1.72,1.1A39.42,39.42,0,0,0,360.5,121.4Z"/><path class="cls-11" d="M409.87,110.85c.89-.1,1.75-.23,2.58-.38l.58-.11c.54-.1,1.06-.22,1.58-.34.71-.18,1.39-.36,2.05-.57a21.25,21.25,0,0,0,6-2.81,11.9,11.9,0,0,0,2-1.71c-3-.88-6-1.82-8.91-2.82-3.44-1.17-6.8-2.42-10.12-3.71-.87-.11-1.75-.24-2.64-.38-2.39-.39-4.87-.93-7.42-1.6l-.41-.11c-1.16-.32-2.33-.66-3.52-1l-1.45-.46c-1.87-.63-3.78-1.34-5.71-2.13,3.11,1.86,6.3,3.65,9.63,5.3,1.47.72,3,1.4,4.51,2.06.77.33,1.54.67,2.33,1s1.66.61,2.49.91q3.21,1.14,6.65,2c.86.21,1.71.44,2.59.62-.62,0-1.26,0-1.89,0a34.18,34.18,0,0,1-4.22-.36c-.74-.1-1.48-.22-2.23-.37-.18,0-.36-.08-.54-.12-1.27-.26-2.55-.58-3.84-1a91.64,91.64,0,0,1-19.31-8.47c-.27.09-.57.15-.85.23l-.14,0a26.94,26.94,0,0,1-3.7.72c-.81.09-1.66.15-2.53.17a30,30,0,0,1-3.65-.09c-.94-.09-1.9-.23-2.88-.41-.38-.07-.77-.17-1.16-.26l-.25-.06c-.46-.11-.93-.21-1.4-.34h0c-.28-.08-.57-.15-.85-.24.33.19.65.4,1,.59s.89.45,1.32.68l.29.15c.53.29,1.08.55,1.62.83l1.09.55c.64.32,1.25.67,1.91,1-.09.1-.2.18-.29.28l-.15.15a9.28,9.28,0,0,1-1.21,1l-.12.08c-.14.09-.26.2-.4.29a10.56,10.56,0,0,1-1.47.72c-.12.06-.27.09-.4.14l-.49.17.78.61,1.3,1c.9.71,1.78,1.42,2.71,2.11,1.23.91,2.51,1.77,3.79,2.64a70.67,70.67,0,0,0,13.8,7.44c-3.84-.16-8.2-2-12.69-4.67-1.23-.72-2.45-1.51-3.69-2.35l-1.31-.91c-.89-.63-1.78-1.28-2.66-1.95-.64-.48-1.27-1-1.91-1.49s-1.56-1.25-2.33-1.89a16.18,16.18,0,0,1-2.26.22,21.37,21.37,0,0,1-3.13-.18l-.9-.12-.27,0c-.5-.09-1-.24-1.55-.36s-1.13-.3-1.71-.49l-1-.33h0l-1-.35a36.69,36.69,0,0,1-3.4-1.6c.93,1.21,1.91,2.4,2.91,3.58.44.51.86,1,1.31,1.54l.09.1h0c.2.21.37.43.56.65-.1,0-.22.08-.33.13,1.15.94,2.29,1.79,3.43,2.63.44.33.89.7,1.33,1,1.68,1.19,3.34,2.26,5,3.25.31.19.62.35.93.53.74.44,1.49.88,2.22,1.28l.71.4c1.86,1,3.65,1.78,5.42,2.51,1.2.5,2.38,1,3.53,1.34.55.18,1.08.33,1.61.49s1.09.36,1.61.49a31.32,31.32,0,0,0,13.44.91,15.89,15.89,0,0,0,2.6-.7l.37-.14a11.2,11.2,0,0,0,2.55-1.36c.09-.07.21-.12.3-.19-.28-.13-.53-.29-.81-.43l-.89-.47q-3.49-1.77-6.76-3.74c-1.63-1-3.26-2-4.83-3l-1-.44a63,63,0,0,1-10-5.41,73.83,73.83,0,0,0,7.76,3.64l1.1.42c1.06.4,2.12.77,3.16,1.11l1,.32q2.75.84,5.4,1.41c.81.17,1.62.33,2.42.47A54,54,0,0,0,409.87,110.85Z"/><path class="cls-11" d="M429.19,85c-2.66-.66-5.27-1.39-7.87-2.12l-3.66-1a72.54,72.54,0,0,1-10.27.15c-1-.06-2-.1-3.06-.2-2.82-.24-5.7-.59-8.72-1.14l-.74-.14c-.21.16-.42.32-.64.47,1.51.48,3,1,4.56,1.42,5.54,1.61,11.25,3,17.1,4.07,3.17.6,6.37,1.11,9.62,1.53.34,0,.68.11,1,.15-.13,0-.27,0-.39.06a35.87,35.87,0,0,1-4.67.59,58.09,58.09,0,0,1-12.05-.56c-1.58-.22-3.19-.5-4.8-.83-.32-.06-.64-.15-1-.22-2-.43-4.1-.94-6.15-1.5-.9-.24-1.79-.48-2.68-.74s-1.7-.54-2.54-.82-1.65-.52-2.46-.8c-.53.21-1.1.4-1.67.58s-.83.27-1.27.39l-.34.08a31.66,31.66,0,0,1-5,.87c-.68.06-1.4.09-2.12.11l-.28,0h-.77l-.91,0,1.64.61,2.05.73c1.12.37,2.29.69,3.44,1l.2.06c1.25.37,2.45.79,3.73,1.12-.08.14-.21.26-.3.39a8.44,8.44,0,0,1-.65.86c-.14.15-.32.29-.47.44l0,0a10.07,10.07,0,0,1-1,.9h0l.05,0,.08,0q2.44.92,4.82,1.66l.68.21q2.76.84,5.42,1.46c1,.24,2,.45,2.95.63q2.85.56,5.55.87l1.48.15q3.09.28,6,.29c1.41,0,2.77,0,4.1-.14h.16l1.34-.1c.73-.07,1.45-.15,2.16-.25l.65-.1c.7-.11,1.38-.22,2.05-.35A38.74,38.74,0,0,0,432,93.27a28,28,0,0,0,3.62-2,18.74,18.74,0,0,0,3.27-2.7c.13-.13.26-.27.38-.41s.39-.46.57-.69l.09-.11c-.55-.11-1.08-.25-1.62-.36C435.22,86.4,432.17,85.73,429.19,85Z"/><path class="cls-11" d="M450.67,41.93c-1,.88-2.07,1.74-3.23,2.56a27,27,0,0,1-3.23,2c-3.83,2-9,3.58-17.16,4a118.39,118.39,0,0,1-15-.28c-1.09-.08-2.21-.17-3.36-.28l-.2.21-.27.26a25.62,25.62,0,0,1-3,2.41c.56.07,1.17.11,1.73.2a2.4,2.4,0,0,0-.11.23,42.87,42.87,0,0,1-2.4,4.74.16.16,0,0,0,0,.07c-.15.24-.28.5-.43.74s-.51.76-.76,1.14l-.12.17c-.34.49-.66,1-1,1.45l0,.05h0l-.3.35c-.2.25-.41.48-.62.73,2.58.14,5.13.22,7.65.22h1.28q3.94.6,7.81,1c5,.6,9.91,1,14.56,1.1,1.85,0,3.68.05,5.45,0a7.83,7.83,0,0,1-1,.76,11.84,11.84,0,0,1-1.84,1,19.14,19.14,0,0,1-2.67.92A47.37,47.37,0,0,1,419,69a124.39,124.39,0,0,1-16-1.58q-2.64-.41-5.53-.94a30.32,30.32,0,0,1-2.53,1.85,28.16,28.16,0,0,1-4.48,2.38l-.05,0-.18.09c-.45.18-.93.34-1.41.5l-.59.21-.74.25c-1,.3-2.05.56-3.12.77A133.06,133.06,0,0,0,399,75.86c-.11.22-.26.43-.39.65a12.85,12.85,0,0,1-1.5,2c-.09.11-.2.21-.3.32l-.11.1.66.11c.7.1,1.38.17,2.07.24a78.71,78.71,0,0,0,10.95.43h.49c1.07,0,2.1-.14,3.15-.22l.39,0c.62,0,1.25-.1,1.86-.17.41,0,.84-.06,1.24-.12.11,0,.23,0,.34,0a62.84,62.84,0,0,0,6.77-1.35,55.38,55.38,0,0,0,7.34-2.43,46.08,46.08,0,0,0,6.14-3,38.77,38.77,0,0,0,3.85-2.62c.61-.47,1.15-1,1.71-1.46.41-.36.83-.74,1.22-1.12s.7-.62,1-1,.53-.67.81-1l.43-.53a26,26,0,0,0,3.53-5.4A109.19,109.19,0,0,1,437,60.61q-3.64.81-7.58,1.32l-1.86.22q-3,.32-6.15.47c-.94.05-1.88.09-2.84.11s-1.64,0-2.47,0c.6,0,1.19-.08,1.78-.13.76,0,1.52-.1,2.27-.17,1.76-.17,3.49-.38,5.18-.63.58-.09,1.16-.16,1.73-.26,1.53-.25,3-.54,4.51-.86a68.3,68.3,0,0,0,12.39-3.89,50.24,50.24,0,0,0,6.49-3.38,40.9,40.9,0,0,0,3.75-2.61,36.45,36.45,0,0,0,4.27-3.94,32.06,32.06,0,0,0,2.11-2.55,30.15,30.15,0,0,0,1.79-2.66c.37-.63.7-1.29,1-2l.37-.71a31.57,31.57,0,0,0,1.95-5.49q-3.17.75-6.34,1.36c-14.78,2.88-29.91,3.77-44.55,3.88,0,.12,0,.25-.06.37a25.91,25.91,0,0,1-.74,2.55,22.55,22.55,0,0,1-1.35,3.09C425.78,44.63,439,44,450.67,41.93Z"/><path class="cls-11" d="M341.18,93.8l-.09.06c-.77.46-1.51.94-2.3,1.38-.42.23-.87.43-1.3.66l-.44.22-.35.18-.8.4-.43.22c.42.45.84.88,1.26,1.27l0,0a23.23,23.23,0,0,0,4.1,3.11,17.43,17.43,0,0,0,2.22,1.09c.29.12.58.22.87.32s.48.17.71.23a11.5,11.5,0,0,0,5.59.25c.25,0,.5-.12.74-.19l.1,0-.07-.08c-.6-.73-1.16-1.47-1.73-2.2s-1.27-1.62-1.88-2.44c-.39-.52-.76-1-1.13-1.58-.67-.4-1.34-.84-2-1.31-.47-.32-.94-.67-1.41-1l-1.18-.9Z"/><path class="cls-11" d="M360.17,96.38a10.58,10.58,0,0,1-1.58-.37l-.89-.3c-.21-.08-.41-.13-.63-.22s-.75-.37-1.13-.55a30.26,30.26,0,0,1-2.72-1.53l-.38-.24h0c-.51-.33-1-.69-1.54-1.06l-.27-.2c-.93-.66-1.85-1.37-2.77-2.11-.2-.17-.4-.31-.6-.48-1.13.88-2.26,1.76-3.44,2.57l-.1.06c-.26.18-.53.33-.78.5s-.42.25-.62.39c.52.37,1,.72,1.55,1.06l.07,0c.71.46,1.41.91,2.1,1.32s1.38.8,2.06,1.15a38.18,38.18,0,0,0,3.71,1.67c.21.08.43.18.64.25h0c.48.18,1,.32,1.42.47l.11,0c.6.18,1.19.34,1.76.48.38.09.76.19,1.12.26s.74.12,1.11.17a18.33,18.33,0,0,0,2.69.23,10.26,10.26,0,0,0,1.12,0,12.69,12.69,0,0,0,2.41-.36,8.12,8.12,0,0,0,1.15-.36.75.75,0,0,0,.13-.06l.13-.06c.3-.13.59-.26.86-.41a6.5,6.5,0,0,0,.66-.47c.11-.08.23-.15.32-.23-.62-.33-1.19-.71-1.8-1-.15-.1-.31-.19-.47-.28l-.82-.48c-.31-.19-.63-.36-.93-.55-1.59-1-3.12-2-4.61-3.07l-.17-.12-.25-.11-.16-.07-.49-.23c-.29-.14-.58-.25-.87-.4-1.08-.54-2.17-1.16-3.25-1.84-.43-.27-.86-.57-1.29-.86h0l0,0-.74-.53c.26.15.52.31.78.45h0c.45.25.89.47,1.34.7.9.46,1.79.89,2.68,1.27l.49.21.24.1.73.31.61.25.17.06c.24.09.48.15.72.24.58.2,1.16.41,1.73.58l.13,0,.41.13c.55.15,1.08.27,1.62.4l.15,0c.54.13,1.08.26,1.61.36.33.07.65.12,1,.17,1,.17,1.93.29,2.86.37a31.82,31.82,0,0,0,3.19.14c.88,0,1.72,0,2.54-.13a24,24,0,0,0,3.62-.61l.3-.07.16,0A16.9,16.9,0,0,0,382.59,92l.32-.16a10.86,10.86,0,0,0,1.37-.91l.31-.25a1.92,1.92,0,0,0,.15-.14,7.73,7.73,0,0,0,.64-.64,1.85,1.85,0,0,0,.14-.14c-.68-.22-1.33-.48-2-.7l-1.1-.39L380.48,88q-3.89-1.4-7.62-3c-.31,0-.61-.06-.92-.11l-.17,0-.32-.06c-.66-.11-1.33-.26-2-.4-.85-.19-1.72-.4-2.6-.64l-.61-.18c-.51-.14-1-.26-1.52-.43l-.08,0c-.48-.15-1-.35-1.48-.52l-.15-.06c-.51-.18-1-.36-1.53-.56l-.34-.12c-.57-.22-1.15-.47-1.73-.72l-.27-.12-.16-.07-.18-.08.2.13.14.09.26.16c.53.34,1.05.69,1.58,1l.83.49c.82.5,1.68,1,2.52,1.42l.4.23.66.37c.66.35,1.34.68,2,1,.34.17.7.31,1,.47a49.23,49.23,0,0,0,4.84,1.92c.57.19,1.16.36,1.75.53s1,.34,1.58.48c.32.08.6.2.93.28l-.4,0c-.51,0-1,0-1.55-.05s-.78,0-1.18-.08c-.83-.1-1.67-.23-2.53-.42-.53-.11-1.07-.28-1.6-.42-1.13-.31-2.26-.67-3.4-1.1l-.51-.19c-.5-.19-1-.42-1.51-.63s-1.22-.52-1.82-.81c-.93-.44-1.86-.9-2.78-1.39l-.1-.06c-.36-.19-.72-.41-1.08-.61h0c-.94-.52-1.85-1.06-2.76-1.62l-.08,0-.36-.23c-.18.19-.34.41-.52.6,0,0,0,0,0,0-.43.45-.87.88-1.31,1.32s-.9.85-1.35,1.27a.94.94,0,0,1-.1.1h0l-.63.59-.24.23c-.15.13-.29.28-.44.42l0,0c-.3.27-.57.57-.88.83l-.11.1-.46.39c-.2.17-.42.31-.63.48l-.28.22-.14.11.44.35c.81.67,1.63,1.32,2.48,2,.38.29.78.57,1.17.86h0l.3.19c.13.1.28.18.41.27.92.64,1.84,1.28,2.82,1.86.48.29,1,.53,1.49.8l.83.41c.47.25.93.49,1.41.72l.23.12c.36.16.68.37,1.05.53-.16,0-.34-.06-.5-.08S360.39,96.42,360.17,96.38Z"/><path class="cls-11" d="M385.14,77.85c-.28.05-.55.11-.84.14-.64.07-1.31.09-2,.11H382c-.66,0-1.33,0-2,0-.34,0-.68,0-1-.07-.89-.06-1.8-.16-2.73-.28l-.79-.12c-1.4-.22-2.82-.49-4.26-.83-1.28-.3-2.57-.64-3.85-1l-1.75-.56c-.51-.17-1-.33-1.52-.51l-.07,0-.41-.14L362.15,74l-.29.4c-.16.23-.33.45-.49.67s-.35.49-.53.72l-.13.18-.35.48-.18.24c-.11.14-.21.3-.32.44l-.27.37,0,.07-.27.34-.12.14-.08.08,0,0c-.07.09-.15.16-.22.25l-.07.08-.24.28c-.09.1-.18.19-.26.29s-.13.14-.19.22l.32.13.75.33,1,.44.67.27c.23.1.46.17.69.25l.05,0,1.28.46c.41.14.82.31,1.22.43l.46.13.26.08c.85.26,1.69.51,2.52.72l.32.07.19,0,.38.08c.81.19,1.63.37,2.41.51l.2,0c.63.11,1.24.19,1.85.27l1.07.14c.81.09,1.59.13,2.37.17l.36,0h.39c1,0,2,0,2.94,0a32.28,32.28,0,0,0,5.18-.69l.09,0,.76-.18q.85-.23,1.65-.48c.46-.15.91-.3,1.34-.46l.17-.08.1,0a21.64,21.64,0,0,0,2.64-1.31c.14-.09.3-.16.43-.25a2.07,2.07,0,0,0,.24-.17l.21-.15c.28-.19.55-.38.8-.57s.67-.57,1-.86.32-.3.47-.46l.22-.27a9.87,9.87,0,0,0,.65-.8c-4.53-1-8.87-2.21-13.14-3.54L381,73h0l-.17,0h0c-1,.1-1.94.14-2.94.16s-1.85,0-2.8,0l-1,0-.45,0c-.17,0-.33,0-.5,0l-.59-.06c-1.51-.13-3.08-.35-4.69-.62L366,72.11,365.3,72h-.06l-.9-.19-.51-.13h0l-.12.19.13,0c.78.28,1.54.57,2.33.84l1.22.4.53.16,1,.31q3.41,1.05,6.94,1.9l.83.2L378,76l1.36.32c1,.21,2.09.38,3.14.56s2.19.39,3.3.55c.35,0,.7.13,1.06.18-.18,0-.38,0-.56.09C385.9,77.75,385.52,77.8,385.14,77.85Z"/><path class="cls-11" d="M378,41.91c-.28.78-.57,1.53-.85,2.3-.13.37-.27.71-.41,1.07,0,0,0,.08-.05.13-.11.28-.22.56-.32.84,1.75,0,3.51,0,5.27-.08,5.08-.13,10.12-.44,14.92-1,1.09-.13,2.16-.28,3.23-.44s2.07-.31,3.07-.49l-.58.51-.38.35c-.44.39-.91.76-1.39,1.13a18,18,0,0,1-4,2.32c-.43.18-.87.35-1.34.5s-1.27.39-2,.56c-4,.95-9.71,1.25-18.22.41a3.84,3.84,0,0,1-.14.36c-.26.66-.54,1.29-.81,1.94,0,0-.05.09-.07.14-.11.26-.22.49-.33.75-.27.62-.54,1.22-.82,1.83l-.17.38,0,.06c-.06.15-.13.31-.2.46l-.09.21v0c-.26.57-.51,1.18-.78,1.73l-.12.28-.18.4-.09.21c-.09.17-.18.32-.26.5.6,0,1.18,0,1.77,0,1.09,0,2.17,0,3.23,0l3,.48a90.8,90.8,0,0,0,14.93,1.08h.58a.73.73,0,0,0-.09.08,6.25,6.25,0,0,1-1.45,1,15.5,15.5,0,0,1-5.32,1.51l-.91.09c-.62,0-1.27.1-2,.12-1.31.05-2.78,0-4.41,0a83.81,83.81,0,0,1-11-1.39c-.13.25-.25.5-.39.75a2.12,2.12,0,0,1-.11.21c-.12.24-.25.5-.38.73s-.34.69-.52,1l-.11.21h0a1.74,1.74,0,0,1-.1.19c-.13.24-.26.47-.4.7s-.24.39-.36.59l-.34.56c-.07.11-.14.21-.2.32l-.15.25-.07.11-.11.17-.18.3h0c-.1.16-.2.32-.29.48l-.23.37h0c-.27.42-.53.87-.8,1.29,1.54.31,3,.52,4.53.69l.44,0,1.35.13h.25c1.23.09,2.44.13,3.62.13l1.49,0h.43c.51,0,1,0,1.51-.08l.41,0,.13,0c.42,0,.82-.11,1.24-.16a38.71,38.71,0,0,0,4-.69l.63-.13.3-.08c.73-.18,1.44-.4,2.14-.62h0l.3-.09a34.08,34.08,0,0,0,4.95-2.1A28.1,28.1,0,0,0,394.85,66l.53-.38c.27-.19.53-.39.79-.59a24.89,24.89,0,0,0,2.76-2.42c.25-.27.47-.55.71-.83s.26-.29.38-.44v0a.08.08,0,0,0,0,0c.38-.47.73-1,1.06-1.44l.09-.14c.24-.36.49-.72.7-1.1s.29-.55.43-.83c0,0,0,0,0,0,.16-.31.34-.61.48-.93-1.16.21-2.29.32-3.43.46h0c-1.68.2-3.35.35-5,.43l-.59,0c-.76.18-1.53.34-2.31.49l-.18,0c-1.35.26-2.74.46-4.18.62l-.23,0c-.93.1-1.89.16-2.86.22l-.84,0c-1.1,0-2.21.08-3.34.09.81-.06,1.61-.12,2.4-.2.36,0,.72-.05,1.07-.09.76-.09,1.5-.21,2.24-.33l.17,0c1.22-.19,2.41-.41,3.58-.67l.29-.06.54-.12,1.56-.4c1-.27,2-.55,2.92-.87a2.18,2.18,0,0,1,.23-.09,35.53,35.53,0,0,0,7-3.38l.71-.47a27.29,27.29,0,0,0,2.93-2.24l.21-.18c.15-.14.31-.25.46-.39a23.52,23.52,0,0,0,3-3.57c.27-.38.54-.77.79-1.17,0-.07.09-.14.14-.21a22.54,22.54,0,0,0,1.55-3.11,22.86,22.86,0,0,0,.83-2.54c0-.13.08-.24.11-.36s.14-.42.2-.64c-.95.25-1.91.43-2.86.64l-1.65.37a134.6,134.6,0,0,1-20.5,2.53C384.56,41.83,381.27,41.89,378,41.91Z"/><path class="cls-11" d="M344.89,71c-.41,1.09-.84,2.16-1.31,3.21-.06.13-.13.26-.19.4-.23.5-.46,1-.71,1.5s-.47.87-.7,1.3l-.32.58c-.5.89-1,1.76-1.61,2.62l-.19.27-.37.5c-.6.86-1.25,1.69-1.94,2.51l-.3.37c-.43.49-.88,1-1.35,1.46s-.72.73-1.1,1.1l-.25.23h0l-.6.56c-.55.49-1.13,1-1.72,1.46l-.46.37,0,0-.13.11c-.54.41-1.11.82-1.68,1.22l-1.43,1-.63.38h0c-.66.41-1.34.81-2,1.21l-1.17.63-.48.25-.61.31-.68.32-1.14.53-.3.14-1.39.59-.95.39-.59.24-1.48.55c-.32.12-.66.23-1,.34l-.7.25-.13,0-1.4.46-.23.07c-.55.17-1.1.34-1.67.5l-.47.14-1.07.3-2.17.56-1.5.37c-.87.2-1.77.39-2.67.58l-1.24.26c-1.36.27-2.75.52-4.19.76l-2.18,4.35h0c5.24-.61,10.16-1.42,14.82-2.42.68-.15,1.33-.31,2-.47,1.82-.42,3.62-.85,5.35-1.34,1.05-.3,2-.65,3.06-1l.17-.06,1.64-.53a82.56,82.56,0,0,0,10.63-4.44l.46-.24.12-.06.35-.18.28-.14.49-.25.92-.47,1.19-.68c.79-.46,1.54-1,2.3-1.45l.26-.16c.14-.1.3-.19.44-.28l.22-.14.3-.19c.36-.24.74-.44,1.09-.69s.48-.35.73-.53.63-.5.95-.74c.75-.55,1.48-1.11,2.2-1.69l.55-.43.49-.37.47-.39s0,0,0,0l.33-.32.41-.38.27-.25c.28-.25.54-.51.81-.76l.07-.07.33-.31.58-.54.43-.41c.42-.4.86-.76,1.27-1.18v0c.16-.17.31-.36.47-.53s.28-.33.43-.49l0,0,0,0v0c.73-.78,1.44-1.59,2.13-2.41s1.3-1.53,1.92-2.34c.42-.53.81-1.1,1.22-1.65l.38-.52.12-.17c.22-.3.45-.58.66-.89l0,0h0l0,0,.22-.3a.35.35,0,0,1,.05-.08l0,0c.09-.13.18-.23.26-.36.25-.36.49-.73.73-1.1a.56.56,0,0,0,0-.08c.12-.18.23-.37.34-.55v0a3,3,0,0,0,.19-.3l.33-.54.05-.07.07-.12c.08-.12.15-.24.22-.36l.06-.09.52-.86c.1-.15.2-.31.29-.47l0,0c.06-.11.13-.22.2-.33v0c.1-.16.21-.32.31-.49l.05-.09.05-.07.12-.2c.16-.28.33-.53.48-.82a.25.25,0,0,0,0-.07c.05-.08.09-.17.13-.25s.1-.2.16-.3c.19-.35.37-.74.56-1.09a2.26,2.26,0,0,0,.11-.22v0c.05-.08.09-.17.13-.25l.38-.72.4-.79c.05-.08.09-.16.13-.24s.15-.29.23-.44c.33-.66.68-1.27,1-1.95,0,0,0,0,0-.06l.21-.46c0-.08.07-.17.11-.25s.18-.43.28-.63l.15-.37c.07-.14.13-.29.19-.43a1.34,1.34,0,0,1,.06-.12c.27-.6.53-1.21.79-1.82,0-.09.08-.18.11-.27l0,0,.09-.21a1,1,0,0,0,0-.1c.07-.17.15-.33.22-.5.26-.61.53-1.17.78-1.79.07-.17.14-.32.2-.48l.12-.32c.23-.57.43-1.2.66-1.79l.18-.49L372.7,48c.21-.58.43-1.14.64-1.73.09-.27.2-.52.29-.8s.18-.47.27-.72.13-.39.2-.59c.24-.71.46-1.49.69-2.22,0-.09.06-.18.08-.26.26-.81.52-1.63.77-2.45.12-.4.25-.78.37-1.18s.23-.73.34-1.11.17-.52.25-.8l.12-.37a7.53,7.53,0,0,1,.67-2.25c.15-.35.35-.74.55-1.14v0l.11-.2a23.43,23.43,0,0,1,1.32-2.23l.08-.14c.56-.83,1.24-1.72,2-2.63l.59-.69c.61-.71,1.28-1.43,2-2.15.26-.27.52-.54.81-.81,1-.95,2.07-1.9,3.27-2.84h0a20.65,20.65,0,0,0-2.25.07c-.25,0-.48.06-.72.09-.47.05-.94.12-1.39.2l-.77.17c-.41.1-.81.2-1.19.32l-.75.25c-.38.13-.74.28-1.1.43l-.67.29c-.39.18-.75.38-1.12.58l-.52.28c-.51.31-1,.62-1.47,1l-.47.35c-.32.24-.63.47-.94.72l-.59.51c-.24.2-.48.41-.71.63l-.6.57-.6.59-.61.63c-.16.17-.32.35-.49.52l-.65.72,0,0c-1.05,1.18-2,2.33-2.91,3.36l-.05,0-.54.6h0a16.21,16.21,0,0,1-2.22,2.09c-3.13,2.67-3.23.79-2.64-2.07h0s0-.05,0-.07c.07-.32.14-.66.22-1l0-.13c.29-1.21.64-2.5.89-3.65,0-.12.05-.24.08-.36s.1-.48.14-.69,0-.29.06-.43a4.81,4.81,0,0,0,.07-.49,3.34,3.34,0,0,0,0-.44c0-.1,0-.22,0-.31a1.35,1.35,0,0,0-.14-.51,16.73,16.73,0,0,0-9,5.22,14.14,14.14,0,0,0-1.15,1.52,9.54,9.54,0,0,0-1.48,3.31c-.37,2.46-.71,4.86-1.05,7.22-.12.89-.25,1.77-.37,2.64-.09.56-.17,1.14-.25,1.69-.21,1.46-.43,2.89-.65,4.3-.06.36-.12.72-.17,1.08-.24,1.44-.48,2.86-.74,4.25,0,.13-.05.25-.07.37v0c0,.12,0,.25-.07.37-.08.41-.15.83-.24,1.24,0,0,0,.09,0,.14-.25,1.21-.51,2.39-.79,3.57l-.21.87c-.3,1.2-.6,2.38-1,3.54v0c-.34,1.14-.71,2.25-1.1,3.35Z"/><path class="cls-11" d="M342,56.48c-.27.65-.54,1.28-.81,1.91q-.7,1.63-1.44,3.21l-.57,1.19-.3.63c-.52,1.07-1.06,2.1-1.61,3.13L337,67c-.19.35-.37.72-.57,1.06-.71,1.28-1.45,2.52-2.21,3.73-.13.21-.25.43-.38.63s-.35.52-.53.78c-.66,1-1.33,2-2,3-.07.1-.15.19-.22.28-.18.25-.38.49-.56.74l-.29.37c-.69.91-1.38,1.8-2.1,2.66-.36.44-.73.86-1.11,1.28-.66.77-1.34,1.51-2,2.23l-1.05,1.08c-.47.46-.94.93-1.42,1.38s-1.22,1.11-1.84,1.65c-.34.3-.67.6-1,.88l-.2.15-.39.31c-.81.66-1.63,1.31-2.47,1.91-.59.43-1.2.83-1.8,1.23-.27.18-.53.37-.8.54l-.83.54c-.73.45-1.48.88-2.24,1.3l-1.78,1-1.06.52c-1.72.84-3.48,1.64-5.3,2.32,2.06-.59,4-1.21,5.88-1.84.58-.2,1.12-.41,1.68-.61l.78-.28c.75-.28,1.54-.55,2.26-.84l.66-.28c.61-.25,1.19-.51,1.78-.77,1.07-.47,2.12-1,3.12-1.44l1-.54.63-.32.69-.35c.59-.33,1.15-.67,1.71-1l.18-.11.21-.13c.56-.34,1.13-.68,1.66-1l1-.69q1.23-.86,2.37-1.77l.61-.49c.91-.75,1.77-1.55,2.6-2.36l.7-.74c.62-.65,1.22-1.32,1.79-2l.64-.77.19-.27c.64-.83,1.27-1.67,1.85-2.56.12-.19.23-.4.36-.59.52-.84,1-1.7,1.49-2.58a2.91,2.91,0,0,1,.17-.3c.11-.22.21-.45.32-.67.49-1,1-2,1.39-3l.18-.4c.13-.32.23-.67.35-1,.34-.87.67-1.75,1-2.68l.33-1.07c.31-1,.61-2.08.88-3.17.08-.33.17-.64.25-1,.33-1.38.64-2.81.91-4.29.06-.31.11-.63.16-.95q.33-1.85.6-3.81c.07-.44.13-.89.19-1.34.09-.72.17-1.48.25-2.22,0-.21.05-.41.07-.62.08-.73.18-1.42.25-2.17-.16.5-.33,1-.49,1.46,0,.15-.1.29-.14.44-.41,1.26-.82,2.51-1.26,3.72-.21.58-.43,1.15-.64,1.72C342.9,54.08,342.43,55.3,342,56.48Z"/></g></g></svg>