<svg xmlns="http://www.w3.org/2000/svg" viewBox="0 0 1039.92 240.72"><defs><style>.cls-1,.cls-2,.cls-3,.cls-4,.cls-5{fill-rule:evenodd;}.cls-2{fill:#71c1e5;}.cls-3{fill:#cc262d;}.cls-4{fill:#fff;}.cls-5{fill:#33348e;}</style></defs><g id="Layer_2" data-name="Layer 2"><g id="Layer_1-2" data-name="Layer 1"><path class="cls-1" d="M158.9,127.48l-3,5.33L0,94.87H176.09L158.9,127.48ZM301.19,142.9l30.83-48H495.67ZM198,148.23l36.76-37.35-9.48,60.47L198,148.23Zm71.75,18.38-17.79-13,5.93-37.35L281,101.4l-11.26,65.21Z"/><path class="cls-2" d="M155.93,125.71l-1.78,3L30.24,98.43H170.17l-14.24,27.28Zm153,11.85,24.9-39.13H466ZM203.37,147.64l26.08-26.09-6.51,43.29-19.57-17.2Zm64,12.46-11.86-8.31,5.93-33.2,14.23-9.49Z"/><path class="cls-3" d="M267.4,198.63,406.73,4.75,376.49,9.49,310.08,99.61l11.27-79.45L295.86,26.1,267.4,198.63Zm-163,42.09,28.46-5.93,58.1-109.69L198,156.53,236.55,115l-14.23,98.42L249,207.51,275.68,29.05,208.1,109.68,201,54.54,104.35,240.72Z"/><path class="cls-1" d="M262.06,193.88,400.8,0,371.15,4.74l-67,90.12L315.43,16l-24.9,5.34L262.06,193.88ZM98.42,236l29-5.93L185,120.36l7.12,31.43,38.54-41.51L217,208.7l26.68-5.93L270.35,24.31l-68.18,80.63L195.06,49.8,98.42,236Z"/><path class="cls-4" d="M268,179.66,393.09,4.75,372.93,8.3,298.82,108.51l12.45-88.35-17.78,4.15L268,179.66Zm-163,51,20.16-3.56,61.07-116.8,8.31,34.39L236,99,221.15,204l19-4.15L265,36.18,199.8,113.84l-6.52-52.18-88.34,169Z"/><path class="cls-5" d="M340.91,190.32h33.21l14.82-24.89h54.54v24.89h30.24L474.9,42.1H428.65L340.91,190.32Zm63.44-51,39.73-67v67Zm502.19,51h33.2l14.81-24.89h54.55v24.89h30.24l.58-148.22H994.28L906.54,190.32Zm63.44-51,39.73-67-.59,67ZM607.72,81.23h-24.9c5.34-26.08-40.31-27.27-58.1,27.87-9.49,29.05,0,54.54,16,54.54h17.19l8.9-27.86H549l7.11-24.31H603l-23.72,79.44H543.09c-38.54-1.18-63.44-36.76-43.28-92.49,14.82-39.72,46.25-59.28,72.33-59.88,31.43-.59,39.73,17.79,35.58,42.69Zm147-39.13L722.15,149.41c-7.7,24.91-33.21,45.07-58.1,45.07H649.23c-24.91,0-39.73-20.16-32.61-45.07L649.81,42.1h31.42l-32,102c-3.56,11.85,2.37,21.34,14.23,21.34,11.25,0,23.71-9.49,27.27-21.34l32.6-102Zm89.52,12.45L836,80.64C825.9,64,811.09,56.92,801.6,62.86c-17.2,12.45,4.14,31.42,18.38,49.8,36.17,46.24,8.29,81.23-28.46,81.23-18.37,0-35.57-10.08-51.58-28.46l9.49-29.05c10.08,14.24,32.61,42.09,52.18,24.9,5.93-4.74,5.33-14.23-1.19-25.49-11.86-22.54-35-43.88-32-65.23,6.5-45.06,62.83-36.16,75.87-16Zm6.52,136.36H884L921.35,68.78h27.87l7.69-26.68H868.58l-7.71,26.68h27.86L850.8,190.91Z"/></g></g></svg>