<svg xmlns="http://www.w3.org/2000/svg" viewBox="0 0 959.9 217.24"><defs><style>.cls-1{fill:#273691;}</style></defs><g id="Layer_2" data-name="Layer 2"><g id="Layer_1-2" data-name="Layer 1"><path class="cls-1" d="M182.16,182.15a104,104,0,0,1-147.07,0,104,104,0,0,1,0-147,104,104,0,0,1,147.07,0,104,104,0,0,1,0,147.05Zm3.27-150.34A110,110,0,0,0,108.62,0,108.62,108.62,0,0,0,0,108.63,108.64,108.64,0,0,0,108.62,217.24,108.62,108.62,0,0,0,217.24,108.63a110,110,0,0,0-31.81-76.82Z"/><path class="cls-1" d="M102.65,105.17v6.9l6,3.45,6-3.45v-6.9l-6-3.45Zm11.16-16.52V74a5.19,5.19,0,0,0-10.38,0V88.65l5.2,3ZM76,121.43a5.35,5.35,0,0,0-2.42,3.15,5.22,5.22,0,0,0,3.68,6.36,5.31,5.31,0,0,0,3.94-.52l12.69-7.33v-6l-5.2-3Zm65.17,0-12.69-7.32-5.19,3v6L136,130.43a5.19,5.19,0,0,0,5.19-9Z"/><path class="cls-1" d="M183.67,153a1.61,1.61,0,0,1-1,.12l-22.81-4.27a2.61,2.61,0,0,1-2.12-2.36A8.21,8.21,0,0,0,156,142a8.08,8.08,0,0,0-8.88-2.46,20.42,20.42,0,0,1-17-1.58l-6.76-3.89v44.39h-9.52V128.6l-5.19-3-5.19,3v49.89H93.92V134.1L87.15,138a20.38,20.38,0,0,1-17,1.58,8,8,0,0,0-10.68,6.94,2.62,2.62,0,0,1-2.12,2.36l-22.81,4.27a1.62,1.62,0,0,1-1.88-1.31,1.88,1.88,0,0,1,0-.41,1.68,1.68,0,0,1,.38-.9l15.1-17.61a2.59,2.59,0,0,1,3.1-.66,8.05,8.05,0,0,0,11.36-5.78,20.34,20.34,0,0,1,9.86-13.94l6.76-3.89L40.76,86.45l4.76-8.24,43.2,24.94,5.2-3v-6L50.71,69.22,55.46,61,93.91,83.17V75.36A20.34,20.34,0,0,1,101,59.85a8.1,8.1,0,0,0,2.3-8.93,8.19,8.19,0,0,0-3-3.8,2.64,2.64,0,0,1-1-3l7.71-21.89a1.62,1.62,0,0,1,1.52-1.07,1.6,1.6,0,0,1,1.51,1.07l7.72,21.89a2.65,2.65,0,0,1-1,3,8.05,8.05,0,0,0-.67,12.73,20.45,20.45,0,0,1,7.13,15.51v7.81L161.77,61l4.75,8.24-43.2,24.94v6l5.2,3,43.2-25,4.75,8.24L138,108.63l6.77,3.9a20.44,20.44,0,0,1,9.86,13.93A8,8,0,0,0,166,132.24a2.61,2.61,0,0,1,3.1.67l15.1,17.61a1.6,1.6,0,0,1,.17,1.84,1.57,1.57,0,0,1-.71.66ZM173.86,43.38a92.27,92.27,0,0,0-130.48,0,92.26,92.26,0,0,0,0,130.49,92.27,92.27,0,0,0,130.48,0,92.28,92.28,0,0,0,0-130.49ZM734.61,199.13V18.1H766.3V87.49H801V18.1h32.4v181H801V119.65H766.3v79.48ZM271,129.11l-35.19-111h31.63l21.66,70.53L313,18.1h29.64L306.16,125.51v73.62H271Zm188.29,70h28.39V62.68l24.22,118.63h26.51L559.84,60.76V199.13h33.28V18.1H541.54l-15.19,86.12L508.73,18.1H459.24ZM889.3,126.84l13.49-81,13.09,81ZM930,18.1H881l-33.09,181h29.33l7-42.13h36.5l6.82,42.13H959.9L930,18.1ZM649,126.84l13.5-81,13.09,81ZM689.71,18.1h-49l-33.09,181h29.34L644,157h36.49l6.82,42.13h32.32ZM373.62,126.84l13.5-81,13.1,81ZM414.35,18.1h-49l-33.09,181h29.35l7-42.13h36.49l6.82,42.13h32.32Z"/></g></g></svg>